<svg width="281" height="301" viewBox="0 0 281 301" fill="none" xmlns="http://www.w3.org/2000/svg">
<path d="M187.554 42.8978C238.659 63.8871 248.393 133.015 246.872 164.955C248.773 187.77 237.518 241.84 177.288 275.605C102 317.812 63.2159 298.419 18.7278 247.087C-25.7603 195.755 27.8536 74.8381 63.2159 42.8978C98.5783 10.9575 123.674 16.6612 187.554 42.8978Z" stroke="#7393CC" stroke-width="3.71436"/>
<path d="M59.7959 58.8675C90.8233 4.11292 154.096 -1.21048 181.854 2.97215C240.03 21.2235 257.141 78.259 274.252 135.295L274.252 135.296C291.363 192.332 254.859 259.635 202.386 269.901C149.913 280.168 90.5956 272.182 52.9518 226.554C15.308 180.925 21.0116 127.311 59.7959 58.8675Z" stroke="#FFF7B0" stroke-width="3.71436"/>
<path d="M246.873 164.954C248.394 133.014 238.66 63.8861 187.556 42.8968C123.676 16.6602 98.5797 10.9566 63.2173 42.8968" stroke="#7393CC" stroke-width="3.71436"/>
</svg>
