<svg width="228" height="242" viewBox="0 0 228 242" fill="none" xmlns="http://www.w3.org/2000/svg">
<path d="M137.307 1.26664C106.912 -9.181 97.7322 47.5686 96.9418 77.2494C76.7598 23.8239 18.5854 29.7602 1.96418 70.1261C-14.6571 110.492 80.3188 133.049 57.7614 130.675C35.204 128.3 -13.4724 161.543 9.08496 201.909C31.6424 242.275 96.9418 149.671 87.4449 168.666C77.948 187.662 108.815 264.832 144.432 233.964C172.926 209.27 151.554 167.479 137.307 149.671C145.618 156.003 169.601 168.666 199.045 168.666C235.849 168.666 232.287 128.3 216.853 102.181C204.506 81.2861 163.428 93.475 144.432 102.181C146.015 97.8282 151.793 85.3226 162.241 70.1261C175.3 51.1304 175.3 14.3262 137.307 1.26664Z" fill="#FFE5D1"/>
<circle cx="107.344" cy="123.166" r="23.4261" fill="#FFF7B0"/>
</svg>
