<svg width="308" height="464" viewBox="0 0 308 464" fill="none" xmlns="http://www.w3.org/2000/svg">
<path d="M93.7992 415.545C93.7992 416.029 93.8082 416.534 93.8255 417.058C94.6975 443.353 120.028 462.696 146.328 461.963L179.366 461.042C197.978 460.523 213.366 446.377 215.445 427.874C215.618 426.331 215.596 424.765 215.346 423.233C213.85 414.072 213.117 415.594 211.82 409.107C210.073 400.374 210.073 395.368 211.82 382.617C213.567 369.867 225.269 357.815 230.16 350.654C235.05 343.493 245.355 322.708 251.643 310.831C257.931 298.954 268.889 292.936 270.413 285.52C271.937 278.104 270.82 271.501 270.921 266.828C271.023 262.155 272.242 253.724 273.359 248.848C274.477 243.972 281.384 223.959 283.721 221.013C286.057 218.067 287.784 210.956 289.41 205.877C291.035 200.798 295.606 185.255 296.825 181.598C298.044 177.941 299.873 176.113 302.514 171.135C305.155 166.157 308.406 158.843 306.476 155.592C304.546 152.342 296.622 150.513 287.175 152.85C277.727 155.186 259.32 169.211 252.779 180.626C246.238 192.04 246.303 197.812 246.11 200.826C245.918 203.84 241.814 214.164 241.365 216.793C240.916 219.422 235.273 230.195 233.798 233.273C233.649 233.584 233.53 233.873 233.437 234.142C233.156 234.951 231.575 236.437 230.72 236.48C228.155 236.608 223.025 244.56 221.165 244.56C219.305 244.56 211.803 231.67 210.071 229.554C208.34 227.438 202.697 212.497 201.824 211.984C200.951 211.471 201.824 209.632 201.824 205.458C201.824 201.284 199.188 189.036 198.546 184.265C197.904 179.494 197.262 169.035 197.262 165.823C197.262 162.612 198.913 155.639 199.922 149.675C200.932 143.711 204.143 122.517 205.611 114.901C207.079 107.286 206.07 98.0189 205.611 94.2571C205.152 90.4953 204.051 66.2729 204.051 57.9235C204.051 49.5741 202.4 43.4267 200.289 32.7836C198.179 22.1404 191.114 13.791 181.48 14.892C171.846 15.993 170.837 28.3795 170.103 34.5268C169.369 40.6742 169.186 58.107 170.103 63.6121C171.021 69.1172 171.021 81.7789 170.103 87.651C169.186 93.5231 166.984 106.277 166.984 109.304C166.984 112.332 165.24 125.361 164.965 129.948C164.69 134.536 163.497 153.162 160.836 160.043C158.175 166.924 149.642 164.08 148.083 162.612C146.523 161.144 146.982 156.832 146.706 151.785C146.431 146.739 147.991 128.939 148.083 123.251C148.174 117.562 148.542 98.7529 148.175 92.7891C147.808 86.8252 144.963 67.9244 143.954 61.043C142.945 54.1617 142.945 46.5463 142.486 39.8484C142.027 33.1506 140.009 24.9847 138.908 16.9105C137.807 8.83641 133.953 5.16636 128.907 1.8633C123.86 -1.43975 112.942 -0.522237 109.088 5.99212C105.235 12.5065 107.804 23.3332 108.354 29.8475C108.905 36.3619 110.281 48.1978 111.107 53.9782C111.933 59.7585 112.024 78.7511 112.024 83.2469C112.024 87.7428 112.139 101.689 112.139 107.836C112.139 113.984 113.217 129.49 113.584 133.435C113.824 136.015 114.326 146.413 114.668 153.966C114.797 156.825 113.229 162.317 111.015 160.502C110.189 159.825 108.596 155.908 108.407 153.084C108.219 150.26 103.874 128.045 103.497 120.515C103.121 112.984 100.429 101.877 97.9813 93.2167C95.5339 84.5567 94.4043 66.8602 94.0278 62.7185C93.6513 58.5768 90.8274 41.6333 90.0743 35.4207C89.3213 29.2081 81.7909 20.7363 70.4952 26.1959C59.1996 31.6555 62.4 44.0807 62.9648 50.105C63.5296 56.1294 63.3413 65.3542 64.0944 69.8724C64.8474 74.3907 66.5418 85.6863 67.2948 94.5346C68.0478 103.383 67.8596 116.561 68.9892 124.28C70.1187 131.998 74.098 154.153 76.7078 161.179C80.6765 171.863 79.6636 176.051 78.9105 179.817C78.1575 183.582 73.8992 194.689 69.3809 190.924C64.8626 187.159 58.8383 170.027 55.6379 161.179C52.4375 152.331 49.4253 147.436 44.3422 141.223C39.2592 135.011 39.0709 129.739 33.6114 115.243C28.1518 100.747 22.3157 93.0285 16.4796 88.3219C10.6435 83.6154 2.73674 87.1924 0.665877 93.0285C-1.40499 98.8645 1.79547 114.867 4.24286 124.28C6.69025 133.693 13.2792 143.106 16.4796 153.837C19.6801 164.568 24.9513 173.981 29.8461 183.77C34.7409 193.56 41.7066 215.963 42.0831 218.222C42.4596 220.481 42.2715 231.024 44.1541 239.119C46.0367 247.214 47.1663 254.18 47.9193 261.898C48.5217 268.073 53.3444 285.9 55.6805 294.041C61.6365 325.807 75.1369 342.484 79.5047 353.205C83.8725 363.926 83.8725 376.235 87.8431 384.573C91.8139 392.912 93.7992 402.839 93.7992 415.545Z" fill="#7393CC"/>
<path d="M96.8222 333.881C97.817 336.659 106.118 345.453 113.255 352.615C117.49 356.864 119.995 362.545 120.247 368.539C120.268 369.043 120.29 369.549 120.313 370.052C120.394 371.819 119.317 378.367 118.13 386.517C115.022 407.872 131.428 423.839 153.007 424.042C173.663 424.236 188.702 409.723 187.971 389.078C187.906 387.247 187.847 385.749 187.801 384.741C187.514 378.415 185.732 367.679 185.536 363.367C185.34 359.055 189.198 357.028 191.668 348.892C194.137 340.756 198.832 330.099 199.664 315.692C199.927 311.136 198.796 291.165 198.325 286.249C197.855 281.332 198.415 271.925 199.607 265.575C200.8 259.225 200.57 248.742 199.49 243.977C198.409 239.212 193.42 238.081 189.842 240.836C186.263 243.591 186.067 252.858 186 256.812C185.933 260.765 183.313 268.291 182.4 272.653C181.487 277.015 179.695 275.615 177.299 274.49C174.902 273.364 176.319 271.942 176.324 266.633C176.33 261.325 175.194 258.057 174.331 255.367C173.468 252.677 174.443 252.403 174.017 248.468C173.591 244.533 172.718 241.614 172.18 237.935C171.643 234.256 171.184 226.87 170.002 222.603C168.82 218.337 164.481 217.917 161.418 218.426C158.355 218.936 156.781 222.34 156.949 226.036L157.52 238.602C157.644 241.312 158.761 250.021 158.739 254.965C158.717 259.908 159.98 265.963 160.167 267.368C160.355 268.772 157.523 268.122 156.263 267.545C155.002 266.968 155.498 263.877 155.397 258.957C155.297 254.037 153.871 250.244 153.037 248.187C152.203 246.131 152.892 244.984 152.78 242.521C152.668 240.057 152.262 234.273 151.606 230.695C150.95 227.117 150.213 219.059 149.496 216.87C148.779 214.68 146.472 212.81 143.135 212.715C139.798 212.619 136.802 214.607 135.699 217.497C134.595 220.386 135.413 227.509 135.714 231.418C136.015 235.326 136.751 240.657 136.925 244.476L137.446 255.933C137.58 258.889 139.03 266.35 139.243 268.319C139.327 269.089 138.653 269.395 137.792 269.462C136.18 269.588 134.29 268.164 134.469 266.557C134.633 265.089 133.891 262.279 133.247 259.964C132.604 257.649 131.042 255.106 130.588 254.397C130.135 253.687 130.606 253.007 130.448 251.309C130.289 249.61 128.33 244.015 128.171 242.317C128.013 240.619 127.717 235.029 127.164 231.806C126.612 228.583 123.742 226.196 119.786 226.701C115.83 227.206 114.43 230.355 113.955 232.407C113.48 234.458 115.304 249.561 115.469 253.207C115.635 256.854 115.415 262.305 116.14 267.956C116.864 273.608 119.938 276.96 119.565 280.793C119.193 284.627 120.529 291.988 120.674 293.144C120.818 294.299 120.047 294.151 118.668 296.109C117.289 298.067 117.195 300.117 117.154 300.547C117.112 300.978 113.221 305.288 110.232 304.441C107.244 303.593 105.988 297.587 103.713 294.412C101.438 291.238 100.011 292.286 98.5537 289.075C97.0967 285.864 93.2757 281.121 82.5562 276.036C71.8367 270.952 68.759 278.958 68.9077 282.229C69.0564 285.5 80.8857 305.328 85.5172 310.607C90.1488 315.886 95.1456 329.2 96.8222 333.881Z" fill="#FFF495"/>
</svg>
