<svg width="574" height="83" viewBox="0 0 574 83" fill="none" xmlns="http://www.w3.org/2000/svg">
<path d="M41.8135 7.92818C42.3262 7.00341 43.2727 6.41147 44.326 6.31854L46.5564 6.12174C48.0258 5.99209 49.405 6.85642 49.859 8.2599C52.5974 16.7268 55.3834 30.7272 58.2168 50.261C58.4598 51.9359 57.3742 53.5683 55.6821 53.5982C55.6022 53.5996 55.5222 53.6003 55.4423 53.6003C55.0158 53.6003 54.5572 53.5681 54.0663 53.5036C52.8731 53.347 51.9605 52.4048 51.7042 51.2289C50.9181 47.6228 50.0003 42.1727 48.9508 34.8785C48.3672 30.6089 47.8137 26.9486 47.2902 23.8975C46.8019 21.0509 43.3866 20.5467 42.1369 23.1504C39.8253 27.9664 37.1231 34.322 34.0302 42.2172C33.5988 43.3185 32.6097 44.1112 31.4427 44.304C31.296 44.3282 31.1424 44.3537 30.9817 44.3805C29.9155 44.5687 29.1001 44.6628 28.5357 44.6628C28.3226 44.6628 28.0976 44.6538 27.8607 44.6358C26.7483 44.5516 25.8433 43.753 25.4486 42.7096C24.4829 40.1565 23.1913 36.6053 21.5738 32.0562C20.9217 30.1419 20.3119 28.3864 19.7445 26.7896C18.7568 24.0104 14.9915 24.0182 13.96 26.7815C10.0976 37.1285 7.46034 45.2973 6.04829 51.2881C5.77878 52.4315 4.61669 53.1403 3.48607 52.8214C2.5679 52.5625 1.95253 51.6984 2.05765 50.7502C2.60451 45.8176 4.2805 38.0496 7.08562 27.4463C9.58932 17.9322 11.2935 11.1767 12.198 7.17958C12.526 5.73034 13.8135 4.66997 15.2705 4.96137C15.3999 4.97755 15.5252 4.99269 15.6463 5.00678C16.8071 5.14188 17.8944 5.76831 18.4124 6.81592C19.9339 9.89309 21.8658 14.7629 24.208 21.4252C25.2366 24.3281 26.1402 26.8353 26.9189 28.9468C27.9323 31.6949 31.5536 31.606 32.5848 28.8645C35.9297 19.9713 39.0059 12.9925 41.8135 7.92818Z" fill="#7393CC"/>
<path d="M82.2253 10.291C80.7363 11.1725 78.7491 10.6165 78.1174 9.00556C77.7367 8.03487 77.9551 6.91442 78.7728 6.26743C80.1654 5.16547 81.8078 4.25972 83.6999 3.55019C86.2087 2.54668 88.6861 2.04492 91.1321 2.04492C101.732 2.04492 107.031 11.202 107.031 29.516C107.031 32.0248 106.875 35.7252 106.561 40.6174C106.324 45.2404 106.199 48.7712 106.186 51.2099C106.184 51.4857 106.153 51.7614 106.071 52.0245C105.542 53.7022 104.608 54.5411 103.268 54.5411C102.139 54.5411 101.105 53.9766 100.164 52.8476C99.2229 51.7187 98.7525 50.4643 98.7525 49.0845C98.7525 48.8415 98.3338 48.6292 98.1536 48.7921C94.4672 52.123 90.5587 53.7884 86.4282 53.7884C83.104 53.7884 80.1876 52.5968 77.6788 50.2134C75.2328 47.7674 74.0097 44.8196 74.0097 41.37C74.0097 35.5371 76.2676 30.2687 80.7834 25.5647C85.3619 20.8607 90.5363 18.5088 96.3065 18.5088C96.4254 18.5088 96.5443 18.5158 96.6632 18.5299C96.9289 18.5614 97.1951 18.5969 97.461 18.6266C97.6015 18.6423 97.7498 18.6657 97.9058 18.6969C98.3608 18.7728 98.7269 18.3983 98.6818 17.9393C98.0168 11.1689 95.1239 7.78375 90.0032 7.78375C87.6417 7.78375 85.0491 8.61951 82.2253 10.291ZM97.666 42.5804C98.5329 42.0071 99.0528 41.0386 99.0804 39.9996C99.1754 36.4185 99.2229 33.6452 99.2229 31.6798C99.2229 29.94 99.1693 27.5567 99.062 24.5299C99.0472 24.11 98.7022 23.7772 98.2821 23.7772C93.8291 23.8399 89.7523 25.502 86.0519 28.7634C82.4141 32.0248 80.5953 35.9761 80.5953 40.6174C80.5953 42.6244 81.1911 44.2237 82.3828 45.4154C83.6372 46.6071 85.1424 47.2029 86.8986 47.2029C89.4169 47.2029 93.0061 45.6621 97.666 42.5804Z" fill="#7393CC"/>
<path d="M164.184 7.92818C164.697 7.00341 165.643 6.41147 166.697 6.31854L168.927 6.12174C170.396 5.99209 171.776 6.85642 172.23 8.2599C174.968 16.7268 177.754 30.7272 180.587 50.261C180.83 51.9359 179.745 53.5683 178.053 53.5982C177.973 53.5996 177.893 53.6003 177.813 53.6003C177.386 53.6003 176.928 53.5681 176.437 53.5036C175.244 53.347 174.331 52.4048 174.075 51.2289C173.289 47.6228 172.371 42.1727 171.321 34.8785C170.738 30.6089 170.184 26.9486 169.661 23.8975C169.172 21.0509 165.757 20.5467 164.507 23.1504C162.196 27.9664 159.494 34.322 156.401 42.2172C155.969 43.3185 154.98 44.1112 153.813 44.304C153.667 44.3282 153.513 44.3537 153.352 44.3805C152.286 44.5687 151.471 44.6628 150.906 44.6628C150.693 44.6628 150.468 44.6538 150.231 44.6358C149.119 44.5516 148.214 43.753 147.819 42.7096C146.853 40.1565 145.562 36.6053 143.944 32.0562C143.292 30.1419 142.682 28.3864 142.115 26.7896C141.127 24.0104 137.362 24.0182 136.331 26.7815C132.468 37.1285 129.831 45.2973 128.419 51.2881C128.149 52.4315 126.987 53.1403 125.857 52.8214C124.938 52.5625 124.323 51.6984 124.428 50.7502C124.975 45.8176 126.651 38.0496 129.456 27.4463C131.96 17.9322 133.664 11.1767 134.569 7.17958C134.897 5.73034 136.184 4.66997 137.641 4.96137C137.771 4.97755 137.896 4.99269 138.017 5.00678C139.178 5.14188 140.265 5.76831 140.783 6.81592C142.304 9.89309 144.236 14.7629 146.579 21.4252C147.607 24.3281 148.511 26.8353 149.289 28.9468C150.303 31.6949 153.924 31.606 154.955 28.8645C158.3 19.9713 161.377 12.9925 164.184 7.92818Z" fill="#7393CC"/>
<path d="M204.596 10.291C203.107 11.1725 201.12 10.6165 200.488 9.00556C200.107 8.03487 200.326 6.91442 201.143 6.26743C202.536 5.16547 204.178 4.25972 206.07 3.55019C208.579 2.54668 211.057 2.04492 213.503 2.04492C224.102 2.04492 229.402 11.202 229.402 29.516C229.402 32.0248 229.245 35.7252 228.932 40.6174C228.695 45.2404 228.57 48.7712 228.556 51.2099C228.555 51.4857 228.524 51.7614 228.441 52.0245C227.913 53.7022 226.979 54.5411 225.639 54.5411C224.51 54.5411 223.475 53.9766 222.534 52.8476C221.593 51.7187 221.123 50.4643 221.123 49.0845C221.123 48.8415 220.704 48.6292 220.524 48.7921C216.838 52.123 212.929 53.7884 208.799 53.7884C205.475 53.7884 202.558 52.5968 200.049 50.2134C197.603 47.7674 196.38 44.8196 196.38 41.37C196.38 35.5371 198.638 30.2687 203.154 25.5647C207.733 20.8607 212.907 18.5088 218.677 18.5088C218.796 18.5088 218.915 18.5158 219.034 18.5299C219.299 18.5614 219.566 18.5969 219.832 18.6266C219.972 18.6423 220.12 18.6657 220.276 18.6969C220.731 18.7728 221.097 18.3983 221.052 17.9393C220.387 11.1689 217.494 7.78375 212.374 7.78375C210.012 7.78375 207.42 8.61951 204.596 10.291ZM220.037 42.5804C220.903 42.0071 221.423 41.0386 221.451 39.9996C221.546 36.4185 221.593 33.6452 221.593 31.6798C221.593 29.94 221.54 27.5567 221.433 24.5299C221.418 24.11 221.073 23.7772 220.653 23.7772C216.2 23.8399 212.123 25.502 208.422 28.7634C204.785 32.0248 202.966 35.9761 202.966 40.6174C202.966 42.6244 203.562 44.2237 204.753 45.4154C206.008 46.6071 207.513 47.2029 209.269 47.2029C211.787 47.2029 215.377 45.6621 220.037 42.5804Z" fill="#7393CC"/>
<path d="M291.984 6.48733C292.009 4.84893 293.496 3.62344 295.109 3.91149L296.323 4.12828C296.889 4.22928 297.3 4.95269 297.312 5.5271C297.329 6.41024 298.278 6.66281 299.058 6.24751C301.962 4.70017 304.889 3.9265 307.838 3.9265C313.545 3.9265 317.998 6.37256 321.197 11.2647C324.396 16.1568 325.995 21.7075 325.995 27.9167C325.995 31.0526 325.744 34.0632 325.242 36.9483C324.803 39.7706 323.988 42.6871 322.796 45.6976C321.605 48.6454 319.754 51.0288 317.246 52.8476C314.8 54.6038 311.82 55.4819 308.308 55.4819C306.872 55.4819 305.459 55.3179 304.07 54.9901C301.592 54.4055 298.786 56.0917 298.848 58.6368C299.035 66.4173 299.203 72.4665 299.352 76.7843C299.364 77.1315 299.328 77.4809 299.206 77.8064C298.606 79.4186 297.563 80.2247 296.078 80.2247C294.949 80.2247 293.851 79.7543 292.785 78.8135C291.866 78.0091 291.262 77.0206 290.975 75.8478C290.922 75.6317 290.905 75.4086 290.909 75.186L291.984 6.48733ZM298.373 12.8376C298.191 13.1502 298.149 13.5191 298.153 13.881L298.423 42.9656C298.427 43.4633 298.536 43.959 298.798 44.3828C299.541 45.5892 300.579 46.5919 301.911 47.3911C303.479 48.2691 305.204 48.7082 307.085 48.7082C309.531 48.7082 311.601 47.9242 313.294 46.3562C315.05 44.7882 316.273 42.7185 316.963 40.147C317.716 37.5127 318.218 35.0667 318.469 32.8088C318.782 30.5509 318.939 28.1676 318.939 25.6588C318.939 14.9965 315.333 9.66533 308.12 9.66533C305.799 9.66533 303.635 10.0103 301.628 10.7002C299.979 11.2322 298.894 11.9447 298.373 12.8376Z" fill="#7393CC"/>
<path d="M376.985 3.46618C378.409 3.75368 379.4 5.01809 379.44 6.47008L380.767 53.9633C380.777 54.3455 380.728 54.7302 380.579 55.0823C379.936 56.6031 378.937 57.3634 377.584 57.3634C376.518 57.3634 375.452 56.9244 374.385 56.0463C373.488 55.2606 372.891 54.3243 372.596 53.2373C372.526 52.9807 372.51 52.7134 372.522 52.4478L373.153 38.762C373.275 36.1076 370.157 34.3565 367.543 34.8343C366.153 35.0885 364.989 35.9843 364.537 37.3238C362.277 44.0175 359.507 49.004 356.228 52.2832C352.942 55.6273 347.827 58.3619 340.883 60.4869C339.83 60.8093 338.717 60.2394 338.332 59.207C337.892 58.0225 338.582 56.7239 339.784 56.3339C349.358 53.2274 355.146 46.5227 357.147 36.22C357.428 34.7706 356.582 33.3822 355.305 32.6412C353.268 31.459 351.506 29.9156 350.019 28.0108C348.075 25.4393 347.103 22.4914 347.103 19.1673C347.103 12.5191 348.796 8.09734 352.183 5.90217C355.57 3.70699 360.932 2.6094 368.27 2.6094C371.251 2.6094 374.156 2.89499 376.985 3.46618ZM373.789 25.2652C374.074 24.7932 374.188 24.2409 374.171 23.6898L373.8 11.987C373.756 10.5966 372.839 9.37167 371.467 9.13679C369.497 8.79923 367.02 8.63046 364.037 8.63046C361.026 8.63046 358.455 9.32037 356.322 10.7002C354.19 12.0173 353.124 14.1811 353.124 17.1917C353.124 20.5785 354.472 23.495 357.169 25.941C359.866 28.3244 362.814 29.516 366.012 29.516C369.487 29.516 372.079 28.0991 373.789 25.2652Z" fill="#7393CC"/>
<path d="M403.521 62.7436C403.3 64.0637 402.016 64.9282 400.71 64.6378C399.641 64.4003 398.862 63.4523 398.796 62.3591C398.734 61.3221 398.636 59.9078 398.504 58.1161C398.253 54.7292 398.127 52.2832 398.127 50.7779C398.127 50.392 398.136 49.9971 398.154 49.5934C398.226 47.9514 399.639 46.7325 401.283 46.7325H402.076C403.528 46.7325 404.807 45.7767 405.243 44.3923C405.471 43.6719 405.733 42.8526 406.03 41.9345C406.783 39.802 407.284 38.2967 407.535 37.4187C407.786 36.5406 408.131 35.2548 408.57 33.5614C409.072 31.8053 409.385 30.3314 409.511 29.1397C409.699 27.8853 409.856 26.3487 409.981 24.5298C410.169 22.711 410.263 20.798 410.263 18.791C410.263 15.0857 410.147 11.0107 409.913 6.566C409.811 4.60976 411.418 2.9849 413.375 3.06294C415.769 3.15838 418.244 3.22672 420.8 3.26795C424.752 3.33067 427.982 3.42475 430.49 3.55019C432.16 3.63368 433.858 3.78663 435.583 4.00905C437.116 4.20661 438.254 5.50027 438.309 7.04455C438.463 11.3528 438.616 17.4948 438.769 25.4706C438.966 33.1029 439.144 39.0536 439.302 43.3226C439.367 45.0725 440.808 46.4503 442.559 46.4503H443.944C445.503 46.4503 446.766 47.7139 446.766 49.2726C446.766 50.9033 446.798 53.224 446.86 56.2345C446.986 59.245 447.048 61.252 447.048 62.2556C447.048 62.7992 447.043 63.3063 447.033 63.7766C446.999 65.2851 445.587 66.3002 444.114 65.9729C443.198 65.7693 442.461 65.0812 442.257 64.1648C442.129 63.5932 442.002 62.9568 441.874 62.2556C441.686 60.9384 441.466 59.4959 441.216 57.9279C441.169 57.6342 441.124 57.356 441.081 57.0931C440.839 55.5958 439.582 54.4854 438.068 54.3947C434.54 54.1835 429.694 53.856 423.529 53.4121C417.332 52.9624 412.21 52.6321 408.164 52.4212C406.515 52.3353 405.072 53.5059 404.799 55.1344L403.521 62.7436ZM420.954 9.06094C419.115 8.95637 417.523 10.3359 417.474 12.177C417.454 12.9275 417.434 13.7838 417.414 14.7456C417.351 17.6934 417.257 19.9513 417.131 21.5193C417.069 23.0873 416.88 25.2825 416.567 28.1048C416.316 30.8645 415.971 33.1851 415.532 35.0667C415.093 36.8856 414.434 38.8926 413.556 41.0878C412.619 43.5399 414.302 46.6384 416.927 46.6384H428.133C429.876 46.6384 431.312 45.2726 431.401 43.5321L432.962 12.7727C433.052 10.994 431.703 9.49028 429.924 9.42209C428.892 9.38255 427.638 9.33819 426.163 9.28901C424.185 9.22195 422.448 9.14593 420.954 9.06094Z" fill="#7393CC"/>
<path d="M462.135 32.8088C462.135 30.3 462.386 27.509 462.888 24.4357C463.452 21.3625 464.267 18.1324 465.334 14.7456C466.4 11.3588 467.999 8.53638 470.132 6.27848C472.264 4.02058 474.742 2.89163 477.564 2.89163C483.585 2.89163 488.414 5.61993 492.052 11.0765C495.69 16.4704 497.509 22.4914 497.509 29.1397C497.509 31.9621 497.195 34.7844 496.568 37.6068C496.003 40.3665 495.094 43.0948 493.84 45.7917C492.585 48.4886 490.766 50.7465 488.383 52.5654C486.147 54.2572 483.533 55.2506 480.541 55.5453C480.313 55.5678 480.083 55.5616 479.857 55.5292C474.252 54.7257 469.913 52.2952 466.839 48.2378C463.703 44.0356 462.135 38.8926 462.135 32.8088ZM478.51 7.83513C478.257 7.79763 477.999 7.79255 477.748 7.84549C475.719 8.27448 473.995 10.2609 472.578 13.8048C471.072 17.568 470.1 21.2371 469.661 24.8121C469.222 28.3244 469.003 31.429 469.003 34.1259C469.003 37.6382 470.069 40.8996 472.201 43.9101C474.397 46.8579 476.843 48.3318 479.54 48.3318C481.484 48.3318 483.24 47.5792 484.808 46.0739C486.376 44.5687 487.599 42.7185 488.477 40.5233C489.418 38.2654 490.108 36.0075 490.547 33.7496C491.049 31.4917 491.299 29.4847 491.299 27.7285C491.299 22.5855 490.139 18.1011 487.819 14.2752C485.57 10.5678 482.467 8.42108 478.51 7.83513Z" fill="#7393CC"/>
<path d="M554.661 7.92818C555.174 7.00341 556.12 6.41147 557.174 6.31854L559.404 6.12174C560.873 5.99209 562.253 6.85642 562.707 8.2599C565.445 16.7268 568.231 30.7272 571.065 50.261C571.308 51.9359 570.222 53.5683 568.53 53.5982C568.45 53.5996 568.37 53.6003 568.29 53.6003C567.864 53.6003 567.405 53.5681 566.914 53.5036C565.721 53.347 564.808 52.4048 564.552 51.2289C563.766 47.6228 562.848 42.1727 561.799 34.8785C561.215 30.6089 560.661 26.9486 560.138 23.8975C559.65 21.0509 556.234 20.5467 554.985 23.1504C552.673 27.9664 549.971 34.322 546.878 42.2172C546.447 43.3185 545.457 44.1112 544.29 44.304C544.144 44.3282 543.99 44.3537 543.829 44.3805C542.763 44.5687 541.948 44.6628 541.383 44.6628C541.17 44.6628 540.945 44.6538 540.708 44.6358C539.596 44.5516 538.691 43.753 538.296 42.7096C537.331 40.1565 536.039 36.6053 534.422 32.0562C533.769 30.1419 533.16 28.3864 532.592 26.7896C531.605 24.0104 527.839 24.0182 526.808 26.7815C522.945 37.1285 520.308 45.2973 518.896 51.2881C518.627 52.4315 517.464 53.1403 516.334 52.8214C515.416 52.5625 514.8 51.6984 514.905 50.7502C515.452 45.8176 517.128 38.0496 519.933 27.4463C522.437 17.9322 524.141 11.1767 525.046 7.17959C525.374 5.73035 526.661 4.66997 528.118 4.96137C528.248 4.97755 528.373 4.99269 528.494 5.00678C529.655 5.14188 530.742 5.76831 531.26 6.81592C532.782 9.89309 534.713 14.7629 537.056 21.4252C538.084 24.3281 538.988 26.8353 539.767 28.9468C540.78 31.6949 544.401 31.606 545.432 28.8645C548.777 19.9713 551.854 12.9925 554.661 7.92818Z" fill="#7393CC"/>
<path d="M325.995 27.9167C325.995 21.9016 324.494 16.5046 321.492 11.7256L321.197 11.2647C318.098 6.5255 313.822 4.08175 308.369 3.93359L307.838 3.9265C304.889 3.9265 301.962 4.70017 299.058 6.24751L298.909 6.31738C298.163 6.62841 297.328 6.35477 297.312 5.5271C297.3 4.95269 296.889 4.22928 296.323 4.12828L295.109 3.91149C293.496 3.62344 292.009 4.84893 291.984 6.48733L290.909 75.186L290.91 75.3525C290.916 75.5194 290.935 75.6856 290.975 75.8478C291.262 77.0206 291.866 78.0091 292.785 78.8135C293.785 79.6953 294.812 80.1636 295.866 80.2188L296.078 80.2247C297.47 80.2245 298.474 79.5163 299.089 78.0996L299.206 77.8064C299.297 77.5623 299.341 77.3049 299.352 77.0449L299.352 76.7843C299.241 73.5459 299.118 69.3336 298.984 64.1475L298.848 58.6368C298.786 56.0917 301.592 54.4055 304.07 54.9901C305.459 55.3179 306.872 55.4819 308.308 55.4819C311.601 55.4819 314.425 54.7103 316.78 53.167L317.246 52.8476C319.754 51.0288 321.605 48.6454 322.796 45.6976C323.988 42.6871 324.803 39.7706 325.242 36.9483C325.681 34.4239 325.929 31.8034 325.984 29.0869L325.995 27.9167ZM396.082 50.7783C396.082 50.361 396.091 49.9353 396.11 49.5029C396.236 46.6513 398.665 44.6876 401.282 44.6875L401.283 46.7325C399.639 46.7325 398.226 47.9514 398.154 49.5934L398.134 50.1924C398.129 50.3898 398.127 50.585 398.127 50.7779L398.133 51.3867C398.16 52.9096 398.284 55.1527 398.504 58.1161C398.636 59.9078 398.734 61.3221 398.796 62.3591C398.862 63.4523 399.641 64.4003 400.71 64.6378C401.935 64.9099 403.139 64.167 403.467 62.9854L403.521 62.7436L404.799 55.1344C405.072 53.5059 406.515 52.3353 408.164 52.4212C412.21 52.6321 417.332 52.9624 423.529 53.4121C429.694 53.856 434.54 54.1835 438.068 54.3947C439.582 54.4854 440.839 55.5958 441.081 57.0931C441.124 57.356 441.169 57.6342 441.216 57.9279C441.466 59.4959 441.686 60.9384 441.874 62.2556C442.002 62.9568 442.129 63.5932 442.257 64.1648C442.461 65.0812 443.198 65.7693 444.114 65.9729C445.587 66.3002 446.999 65.2851 447.033 63.7766C447.038 63.5416 447.041 63.2972 447.044 63.0439L447.048 62.2556C447.048 61.252 446.986 59.245 446.86 56.2345C446.798 53.224 446.766 50.9033 446.766 49.2726C446.766 47.7139 445.503 46.4503 443.944 46.4503L443.943 44.4053C446.632 44.4053 448.812 46.5843 448.812 49.2725C448.812 50.8817 448.843 53.1856 448.905 56.1914C449.029 59.1719 449.094 61.2076 449.094 62.2559C449.094 62.8123 449.088 63.3347 449.077 63.8223C449.012 66.7344 446.288 68.5515 443.67 67.9697C442.039 67.6073 440.651 66.3594 440.261 64.6104C440.126 64.0075 439.993 63.3434 439.861 62.6211L439.855 62.583L439.85 62.5449C439.663 61.241 439.446 59.8097 439.196 58.251C439.15 57.9585 439.105 57.6813 439.063 57.4199C438.977 56.8902 438.527 56.4713 437.945 56.4365C434.406 56.2246 429.55 55.8962 423.382 55.4521C417.193 55.0029 412.085 54.6737 408.058 54.4639C407.459 54.4326 406.919 54.8575 406.816 55.4727L405.538 63.082C405.123 65.5575 402.716 67.1793 400.266 66.6348C398.27 66.1911 396.874 64.4489 396.755 62.4824C396.693 61.4592 396.596 60.0554 396.464 58.2676C396.213 54.8771 396.082 52.3654 396.082 50.7783ZM368.271 0.564453C371.383 0.564473 374.424 0.86297 377.39 1.46191C379.816 1.95187 381.419 4.08207 381.484 6.41309L382.811 53.9062C382.827 54.4907 382.757 55.1845 382.463 55.8789C382.045 56.8667 381.445 57.7662 380.587 58.4199C379.703 59.0931 378.671 59.4082 377.584 59.4082C375.918 59.4082 374.408 58.7142 373.085 57.625L373.062 57.6055L373.039 57.5859C371.857 56.5515 371.03 55.2727 370.622 53.7734C370.48 53.249 370.461 52.7553 370.48 52.3535L371.11 38.668C371.13 38.2539 370.919 37.7672 370.259 37.3379C369.583 36.898 368.677 36.7057 367.911 36.8457C367.152 36.9844 366.659 37.4333 366.475 37.9775C364.165 44.8197 361.268 50.1281 357.686 53.7158L357.687 53.7168C354.065 57.4015 348.588 60.2675 341.482 62.4424C339.362 63.0911 337.166 61.9358 336.416 59.9199C335.537 57.5579 336.934 55.1086 339.152 54.3887C343.633 52.9347 347.139 50.671 349.757 47.6387C352.378 44.6025 354.193 40.6961 355.139 35.8301C355.212 35.4528 355.013 34.8363 354.278 34.4102C352.009 33.0934 350.05 31.3749 348.406 29.2695L348.398 29.2568L348.388 29.2441C346.166 26.3058 345.058 22.9215 345.058 19.167C345.058 12.2843 346.801 6.953 351.07 4.18555C354.963 1.66262 360.816 0.564453 368.271 0.564453ZM497.509 29.1397C497.509 22.4914 495.69 16.4704 492.052 11.0765C488.414 5.61993 483.585 2.89163 477.564 2.89163C474.742 2.89163 472.264 4.02058 470.132 6.27848L469.738 6.70801C467.802 8.89088 466.333 11.5705 465.334 14.7456L464.945 16.0088C464.067 18.9377 463.381 21.7469 462.888 24.4357L462.711 25.5752C462.327 28.2024 462.135 30.6137 462.135 32.8088C462.135 38.8926 463.703 44.0356 466.839 48.2378C469.913 52.2952 474.252 54.7257 479.857 55.5292C480.026 55.5535 480.199 55.5629 480.37 55.5566L480.541 55.5453C483.346 55.269 485.819 54.3782 487.959 52.874L488.383 52.5654C490.617 50.8602 492.356 48.769 493.598 46.292L493.84 45.7917C495.094 43.0948 496.003 40.3665 496.568 37.6068C497.117 35.1374 497.426 32.6677 497.494 30.1982L497.509 29.1397ZM107.031 29.516C107.031 11.202 101.732 2.04492 91.1321 2.04492C88.6861 2.04492 86.2087 2.54668 83.6999 3.55019L83.0021 3.8252C81.4011 4.48897 79.9914 5.30319 78.7728 6.26743L78.6261 6.39453C77.9301 7.0543 77.7606 8.0957 78.1174 9.00556C78.7295 10.566 80.6133 11.1363 82.0841 10.3691L82.2253 10.291C85.0491 8.61951 87.6417 7.78375 90.0032 7.78375L90.4767 7.79395C95.3025 7.9989 98.0376 11.3805 98.6818 17.9393C98.724 18.3694 98.4051 18.7255 97.9904 18.7061L97.9058 18.6969C97.828 18.6814 97.7518 18.6679 97.6779 18.6562L97.461 18.6266L96.6632 18.5299C96.6036 18.5228 96.5441 18.5172 96.4845 18.5137L96.3065 18.5088C90.5363 18.5088 85.3619 20.8607 80.7834 25.5647C76.2676 30.2687 74.0097 35.5371 74.0097 41.37L74.0236 42.0107C74.1669 45.186 75.3856 47.9202 77.6788 50.2134C80.1876 52.5968 83.104 53.7884 86.4282 53.7884C90.5587 53.7884 94.4672 52.123 98.1536 48.7921C98.3338 48.6292 98.7525 48.8415 98.7525 49.0845L98.7579 49.3418C98.8131 50.6207 99.2817 51.7893 100.164 52.8476C101.046 53.9059 102.01 54.468 103.058 54.5342L103.268 54.5411C104.608 54.5411 105.542 53.7022 106.071 52.0245C106.133 51.8273 106.166 51.6231 106.179 51.417L106.186 51.2099C106.199 48.7712 106.324 45.2404 106.561 40.6174C106.875 35.7252 107.031 32.0248 107.031 29.516ZM229.402 29.516C229.402 11.4881 224.266 2.33321 213.995 2.05176L213.503 2.04492C211.057 2.04492 208.579 2.54668 206.07 3.55019L205.372 3.8252C203.771 4.48891 202.362 5.30332 201.143 6.26743L200.997 6.39453C200.301 7.05429 200.131 8.09558 200.488 9.00556C201.12 10.6165 203.107 11.1725 204.596 10.291C207.42 8.61951 210.012 7.78375 212.374 7.78375L212.847 7.79395C217.673 7.99871 220.408 11.3803 221.052 17.9393C221.097 18.3983 220.731 18.7728 220.276 18.6969C220.198 18.6813 220.122 18.668 220.048 18.6562L219.832 18.6266L219.034 18.5299C218.975 18.5229 218.915 18.5172 218.856 18.5137L218.677 18.5088C212.907 18.5088 207.733 20.8607 203.154 25.5647C198.638 30.2687 196.38 35.5371 196.38 41.37L196.395 42.0107C196.538 45.186 197.756 47.9202 200.049 50.2134C202.401 52.4477 205.111 53.6347 208.18 53.7744L208.799 53.7884C212.929 53.7884 216.838 52.123 220.524 48.7921C220.704 48.6292 221.123 48.8415 221.123 49.0845L221.129 49.3418C221.184 50.6206 221.652 51.7893 222.534 52.8476C223.475 53.9766 224.51 54.5411 225.639 54.5411C226.895 54.5411 227.794 53.8037 228.337 52.3291L228.441 52.0245C228.503 51.8273 228.537 51.623 228.55 51.417L228.556 51.2099C228.57 48.7712 228.695 45.2404 228.932 40.6174C229.206 36.3369 229.36 32.9685 229.395 30.5127L229.402 29.516ZM10.2033 6.72852C10.708 4.49824 12.8114 2.46142 15.5441 2.93359C15.6611 2.94817 15.7741 2.96292 15.8829 2.97559C17.5708 3.17209 19.3543 4.10773 20.2453 5.90918C21.8244 9.10286 23.7905 14.0702 26.1378 20.7471C27.1637 23.6424 28.0637 26.1395 28.838 28.2393C29.0354 28.7742 29.3928 28.9256 29.7072 28.9199C30.0404 28.9138 30.453 28.7213 30.6701 28.1445C34.0309 19.209 37.1478 12.1256 40.0246 6.93652C40.8807 5.39222 42.4462 4.43129 44.1466 4.28125L46.3771 4.08496C48.7448 3.87623 51.0417 5.27146 51.8048 7.63086C54.6005 16.2749 57.4054 30.4232 60.2404 49.9678C60.6142 52.5457 58.9402 55.5857 55.7179 55.6426C55.6261 55.6442 55.5343 55.6455 55.4425 55.6455C54.9143 55.6455 54.3654 55.6055 53.7999 55.5312C51.6444 55.2482 50.1221 53.5722 49.7062 51.6641C48.9039 47.9837 47.9779 42.4746 46.9269 35.1699L46.9259 35.1631L46.9249 35.1553C46.3434 30.9006 45.7929 27.2645 45.2746 24.2432C45.2197 23.9232 45.1003 23.7512 45.0109 23.6621C44.9162 23.5679 44.8078 23.5192 44.7033 23.5039C44.599 23.4887 44.4875 23.5053 44.379 23.5645C44.2773 23.62 44.1199 23.745 43.9806 24.0352C41.6997 28.7872 39.0184 35.0911 35.9347 42.9629C35.2373 44.7432 33.646 46.0133 31.7765 46.3223C31.6364 46.3454 31.4892 46.368 31.3361 46.3936L31.337 46.3945C30.2394 46.5882 29.2824 46.708 28.5353 46.708C28.2654 46.708 27.9886 46.6962 27.7062 46.6748C25.6612 46.5199 24.1573 45.0779 23.5353 43.4336C22.5625 40.8616 21.2658 37.2951 19.6466 32.7412L19.6427 32.7285L19.6378 32.7158C18.9881 30.8085 18.3814 29.0615 17.8175 27.4746C17.6307 26.9488 17.249 26.752 16.8683 26.752C16.4815 26.752 16.0772 26.9583 15.8761 27.4971C12.0243 37.8156 9.42196 45.8905 8.0392 51.7568C7.51139 53.9961 5.21866 55.4353 2.9308 54.79C1.10377 54.2747 -0.196841 52.5213 0.02455 50.5244L0.144667 49.5371C0.808318 44.433 2.47626 36.8729 5.10853 26.9229C7.6117 17.4108 9.30741 10.687 10.2033 6.72852ZM132.574 6.72852C133.079 4.49784 135.183 2.46043 137.916 2.93359C138.033 2.94809 138.145 2.96298 138.253 2.97559C139.941 3.17204 141.725 4.1075 142.616 5.90918C144.195 9.10286 146.161 14.0702 148.508 20.7471C149.534 23.6424 150.434 26.1394 151.208 28.2393C151.406 28.7745 151.764 28.9257 152.078 28.9199C152.411 28.9137 152.824 28.7213 153.041 28.1445C156.402 19.2089 159.519 12.1256 162.396 6.93652C163.252 5.39233 164.816 4.43131 166.517 4.28125L168.747 4.08496C171.115 3.87603 173.412 5.27133 174.175 7.63086C176.971 16.2748 179.776 30.4231 182.611 49.9678C182.985 52.5457 181.311 55.5856 178.089 55.6426C177.997 55.6442 177.905 55.6455 177.813 55.6455C177.285 55.6455 176.736 55.6054 176.171 55.5312C174.015 55.2483 172.492 53.5723 172.076 51.6641C171.274 47.9837 170.348 42.4745 169.297 35.1699L169.296 35.1631L169.295 35.1553C168.713 30.9006 168.163 27.2644 167.645 24.2432C167.59 23.9233 167.471 23.7512 167.382 23.6621C167.287 23.5678 167.179 23.5192 167.074 23.5039C166.97 23.4887 166.859 23.5054 166.75 23.5645C166.648 23.6199 166.49 23.7446 166.351 24.0352C164.07 28.7872 161.389 35.091 158.305 42.9629C157.607 44.7433 156.016 46.0134 154.147 46.3223C154.007 46.3454 153.86 46.3681 153.707 46.3936L153.708 46.3945C152.611 46.5882 151.654 46.708 150.906 46.708C150.636 46.708 150.36 46.6962 150.077 46.6748C148.032 46.52 146.528 45.0779 145.906 43.4336C144.934 40.8616 143.637 37.2951 142.018 32.7412L142.013 32.7285L142.009 32.7158C141.359 30.8085 140.752 29.0615 140.188 27.4746C140.001 26.9489 139.62 26.752 139.239 26.752C138.853 26.7519 138.447 26.9581 138.246 27.4971C134.394 37.8156 131.792 45.8905 130.409 51.7568C129.882 53.996 127.59 55.435 125.302 54.79C123.475 54.2747 122.174 52.5213 122.396 50.5244L122.515 49.5371C123.178 44.433 124.846 36.8729 127.479 26.9229C129.982 17.4106 131.679 10.687 132.574 6.72852ZM523.051 6.72852C523.556 4.49827 525.659 2.46149 528.392 2.93359C528.509 2.94818 528.622 2.96292 528.731 2.97559C530.419 3.17208 532.203 4.10746 533.094 5.90918C534.673 9.10286 536.638 14.0702 538.985 20.7471C540.011 23.6424 540.911 26.1395 541.686 28.2393C541.883 28.7742 542.24 28.9256 542.555 28.9199C542.888 28.9138 543.302 28.7215 543.519 28.1445C546.879 19.209 549.996 12.1256 552.872 6.93652C553.728 5.39222 555.294 4.43129 556.994 4.28125L559.225 4.08496C561.592 3.87619 563.889 5.27144 564.652 7.63086C567.448 16.2749 570.254 30.4232 573.089 49.9678C573.463 52.5457 571.788 55.5857 568.566 55.6426C568.474 55.6442 568.382 55.6455 568.29 55.6455C567.762 55.6455 567.213 55.6055 566.648 55.5312C564.492 55.2482 562.97 53.5721 562.554 51.6641C561.752 47.9837 560.826 42.4746 559.775 35.1699L559.774 35.1631L559.773 35.1553C559.191 30.9006 558.641 27.2644 558.122 24.2432C558.067 23.9233 557.949 23.7512 557.859 23.6621C557.765 23.5677 557.656 23.5192 557.551 23.5039C557.447 23.4887 557.335 23.5054 557.227 23.5645C557.125 23.62 556.968 23.7451 556.828 24.0352C554.547 28.7872 551.866 35.0911 548.782 42.9629C548.085 44.7432 546.494 46.0133 544.624 46.3223C544.484 46.3454 544.337 46.368 544.184 46.3936L544.185 46.3945C543.087 46.5882 542.131 46.708 541.384 46.708C541.114 46.708 540.836 46.6962 540.554 46.6748C538.509 46.5199 537.006 45.0778 536.384 43.4336C535.411 40.8616 534.113 37.2951 532.494 32.7412L532.49 32.7285L532.485 32.7158C531.836 30.8085 531.229 29.0615 530.665 27.4746C530.478 26.9488 530.097 26.752 529.716 26.752C529.329 26.7521 528.925 26.9583 528.724 27.4971C524.872 37.8156 522.27 45.8905 520.887 51.7568C520.359 53.9961 518.066 55.4353 515.778 54.79C513.951 54.2747 512.652 52.5213 512.873 50.5244L512.992 49.5371C513.656 44.433 515.324 36.8729 517.956 26.9229C520.459 17.4108 522.155 10.687 523.051 6.72852ZM15.2705 4.96137C13.8135 4.66997 12.526 5.73034 12.198 7.17958L11.8214 8.80762C10.855 12.9085 9.27637 19.1214 7.08562 27.4463C4.2805 38.0496 2.60451 45.8176 2.05765 50.7502C1.95253 51.6984 2.5679 52.5625 3.48607 52.8214C4.61669 53.1403 5.77878 52.4315 6.04829 51.2881C7.37207 45.6718 9.77275 38.1412 13.2501 28.6963L13.96 26.7815C14.9915 24.0182 18.7568 24.0104 19.7445 26.7896C20.3119 28.3864 20.9217 30.1419 21.5738 32.0562C23.1913 36.6053 24.4829 40.1565 25.4486 42.7096C25.8433 43.753 26.7483 44.5516 27.8607 44.6358C27.9792 44.6448 28.0947 44.6518 28.2072 44.6562L28.5357 44.6628C29.1001 44.6628 29.9155 44.5687 30.9817 44.3805C31.1424 44.3537 31.296 44.3282 31.4427 44.304C32.5367 44.1233 33.4741 43.4151 33.9425 42.4199L34.0302 42.2172C37.1231 34.322 39.8253 27.9664 42.1369 23.1504C43.3866 20.5467 46.8019 21.0509 47.2902 23.8975C47.8137 26.9486 48.3672 30.6089 48.9508 34.8785C50.0003 42.1727 50.9181 47.6228 51.7042 51.2289C51.9605 52.4048 52.8731 53.347 54.0663 53.5036C54.4344 53.5519 54.7845 53.5817 55.1163 53.5938L55.4423 53.6003L55.6821 53.5982C57.3213 53.5692 58.3911 52.0364 58.2355 50.418L58.2168 50.261C55.3834 30.7272 52.5974 16.7268 49.859 8.2599C49.405 6.85642 48.0258 5.99209 46.5564 6.12174L44.326 6.31854L44.13 6.3418C43.1564 6.48673 42.2942 7.06138 41.8135 7.92818L41.2843 8.90039C38.6208 13.8725 35.7206 20.5272 32.5848 28.8645L32.4806 29.1133C31.3671 31.5281 28.1199 31.6065 27.0216 29.1963L26.9189 28.9468C26.5295 27.891 26.1092 26.7361 25.6574 25.4824L24.208 21.4252C22.0122 15.1795 20.1768 10.5089 18.7023 7.41406L18.4124 6.81592C17.9268 5.83393 16.9411 5.22216 15.8634 5.03809L15.6463 5.00678C15.5252 4.99269 15.3999 4.97755 15.2705 4.96137ZM137.641 4.96137C136.184 4.66997 134.897 5.73034 134.569 7.17958L134.192 8.80762C133.225 12.9085 131.647 19.1214 129.456 27.4463C126.651 38.0496 124.975 45.8176 124.428 50.7502C124.323 51.6984 124.938 52.5625 125.857 52.8214C126.917 53.1204 128.005 52.5161 128.359 51.4971L128.419 51.2881C129.831 45.2973 132.468 37.1285 136.331 26.7815C137.362 24.0182 141.127 24.0104 142.115 26.7896C142.682 28.3864 143.292 30.1419 143.944 32.0562C145.562 36.6053 146.853 40.1565 147.819 42.7096C148.214 43.753 149.119 44.5516 150.231 44.6358C150.349 44.6448 150.465 44.6518 150.577 44.6562L150.906 44.6628C151.471 44.6628 152.286 44.5687 153.352 44.3805L153.813 44.304C154.98 44.1112 155.969 43.3185 156.401 42.2172C159.494 34.322 162.196 27.9664 164.507 23.1504C165.757 20.5467 169.172 21.0509 169.661 23.8975C170.184 26.9486 170.738 30.6089 171.321 34.8785C172.371 42.1727 173.289 47.6228 174.075 51.2289C174.331 52.4048 175.244 53.347 176.437 53.5036C176.805 53.552 177.155 53.5817 177.487 53.5938L177.813 53.6003L178.053 53.5982C179.745 53.5683 180.83 51.9359 180.587 50.261C177.843 31.3381 175.142 17.6076 172.486 9.07031L172.23 8.2599C171.776 6.85642 170.396 5.99209 168.927 6.12174L166.697 6.31854C165.643 6.41147 164.697 7.00341 164.184 7.92818C161.377 12.9925 158.3 19.9713 154.955 28.8645C153.956 31.5203 150.527 31.6869 149.392 29.1963L149.289 28.9468C148.511 26.8353 147.607 24.3281 146.579 21.4252C144.383 15.1797 142.548 10.5089 141.073 7.41406L140.783 6.81592C140.297 5.8338 139.311 5.22207 138.234 5.03809L138.017 5.00678C137.896 4.99269 137.771 4.97755 137.641 4.96137ZM528.118 4.96137C526.661 4.66997 525.374 5.73035 525.046 7.17959L524.669 8.80762C523.703 12.9085 522.124 19.1214 519.933 27.4463C517.128 38.0496 515.452 45.8176 514.905 50.7502C514.8 51.6984 515.416 52.5625 516.334 52.8214C517.464 53.1403 518.627 52.4315 518.896 51.2881C520.22 45.6718 522.62 38.1412 526.098 28.6963L526.808 26.7815C527.839 24.0182 531.605 24.0104 532.592 26.7896C533.16 28.3864 533.769 30.1419 534.422 32.0562C536.039 36.6053 537.331 40.1565 538.296 42.7096C538.691 43.753 539.596 44.5516 540.708 44.6358C540.945 44.6538 541.17 44.6628 541.383 44.6628C541.948 44.6628 542.763 44.5687 543.829 44.3805C543.99 44.3537 544.144 44.3282 544.29 44.304C545.384 44.1233 546.322 43.4151 546.79 42.4199L546.878 42.2172C549.971 34.322 552.673 27.9664 554.985 23.1504C556.234 20.5467 559.65 21.0509 560.138 23.8975C560.661 26.9486 561.215 30.6089 561.799 34.8785C562.848 42.1727 563.766 47.6228 564.552 51.2289C564.808 52.4048 565.721 53.347 566.914 53.5036C567.282 53.5519 567.632 53.5817 567.964 53.5938L568.29 53.6003L568.53 53.5982C570.169 53.5692 571.239 52.0364 571.083 50.418L571.065 50.261C568.32 31.3381 565.62 17.6076 562.964 9.07031L562.707 8.2599C562.253 6.85642 560.873 5.99209 559.404 6.12174L557.174 6.31854L556.978 6.3418C556.004 6.48676 555.142 7.06139 554.661 7.92818L554.132 8.90039C551.468 13.8725 548.568 20.5272 545.432 28.8645L545.328 29.1133C544.215 31.5281 540.968 31.6065 539.869 29.1963L539.767 28.9468C539.377 27.891 538.957 26.7361 538.505 25.4824L537.056 21.4252C534.86 15.1794 533.024 10.5089 531.55 7.41406L531.26 6.81592C530.775 5.8339 529.789 5.22214 528.711 5.03809L528.494 5.00678C528.373 4.99269 528.248 4.97755 528.118 4.96137ZM316.894 25.6592C316.894 20.4945 316.009 16.9804 314.54 14.8096C313.168 12.7814 311.143 11.711 308.12 11.7109C306.005 11.7109 304.067 12.024 302.293 12.6338L302.275 12.6406L302.256 12.6465C300.943 13.07 300.402 13.5156 300.199 13.7812C300.198 13.8032 300.197 13.8301 300.197 13.8623L300.468 42.9463C300.47 43.1705 300.519 43.2779 300.538 43.3096C301.089 44.203 301.87 44.9755 302.934 45.6191C304.176 46.3095 305.546 46.6631 307.085 46.6631V48.7082L306.734 48.7031C304.989 48.6517 303.381 48.2143 301.911 47.3911C300.662 46.6419 299.672 45.7134 298.941 44.6064L298.798 44.3828C298.569 44.0121 298.457 43.5863 298.43 43.1523L298.423 42.9656L298.153 13.881C298.149 13.5191 298.191 13.1502 298.373 12.8376C298.894 11.9447 299.979 11.2322 301.628 10.7002C303.635 10.0103 305.799 9.66533 308.12 9.66533L308.455 9.66895C315.444 9.83285 318.939 15.163 318.939 25.6588L318.932 26.5938C318.897 28.7614 318.743 30.8332 318.469 32.8088L318.362 33.6641C318.088 35.6808 317.622 37.8421 316.963 40.147C316.273 42.7185 315.05 44.7882 313.294 46.3562C311.601 47.9242 309.531 48.7082 307.085 48.7082V46.6631C309.05 46.6631 310.613 46.051 311.904 44.8555L311.918 44.8428L311.932 44.8311C313.353 43.5619 314.388 41.8561 314.988 39.6172L314.992 39.6006L314.997 39.585C315.725 37.0392 316.2 34.7068 316.436 32.583L316.44 32.5547L316.443 32.5273C316.742 30.3715 316.894 28.0829 316.894 25.6592ZM489.254 27.7285C489.254 22.9027 488.169 18.7966 486.07 15.3359C484.107 12.0993 481.51 10.3471 478.211 9.8584C478.181 9.85396 478.16 9.85206 478.149 9.85156C477.192 10.0664 475.835 11.1674 474.477 14.5645C473.029 18.184 472.107 21.6818 471.692 25.0615L471.691 25.0654C471.259 28.5179 471.048 31.5353 471.048 34.126C471.048 37.1833 471.965 40.0268 473.854 42.7031C475.81 45.3237 477.709 46.287 479.539 46.2871L479.54 48.3318L479.287 48.3271C476.857 48.2436 474.634 46.9497 472.616 44.4453L472.201 43.9101C470.202 41.0877 469.14 38.0447 469.015 34.7812L469.003 34.1259C469.003 31.7662 469.171 29.0943 469.507 26.1104L469.661 24.8121C470.1 21.2371 471.072 17.568 472.578 13.8048C473.995 10.2609 475.719 8.27448 477.748 7.84549C477.999 7.79255 478.257 7.79763 478.51 7.83513C482.467 8.42108 485.57 10.5678 487.819 14.2752C490.139 18.1011 491.299 22.5855 491.299 27.7285L491.287 28.3984C491.232 29.99 490.986 31.7738 490.547 33.7496L490.37 34.5967C489.931 36.5722 489.3 38.5478 488.477 40.5233L488.309 40.9307C487.445 42.9483 486.278 44.6627 484.808 46.0739L484.512 46.3477C483.02 47.6706 481.362 48.3318 479.54 48.3318L479.539 46.2871C480.892 46.2871 482.156 45.7851 483.392 44.5986C484.732 43.3121 485.799 41.7126 486.578 39.7637L486.584 39.75L486.589 39.7363C487.48 37.5982 488.128 35.4731 488.539 33.3594L488.544 33.332L488.551 33.3057C489.03 31.1506 489.254 29.297 489.254 27.7285ZM97.1779 31.6797C97.1779 30.2256 97.1374 28.2974 97.0597 25.8887C93.6242 26.2059 90.418 27.6418 87.4044 30.2979C84.1824 33.1919 82.6408 36.5963 82.6408 40.6172C82.6408 42.181 83.0863 43.217 83.8126 43.9521C84.6757 44.7633 85.6679 45.1582 86.8986 45.1582L86.8986 47.2029L86.5724 47.1963C85.0632 47.1312 83.7463 46.6093 82.6212 45.6318L82.3828 45.4154C81.1911 44.2237 80.5953 42.6244 80.5953 40.6174C80.5953 35.9761 82.4141 32.0248 86.0519 28.7634C89.7523 25.502 93.8291 23.8399 98.2821 23.7772C98.7022 23.7772 99.0472 24.11 99.062 24.5299C99.1693 27.5567 99.2229 29.94 99.2229 31.6798C99.2229 33.6452 99.1754 36.4185 99.0804 39.9996L99.0695 40.1934C98.9865 41.1579 98.4786 42.0428 97.666 42.5804L96.8048 43.1396C92.5615 45.8483 89.2596 47.2029 86.8986 47.2029L86.8986 45.1582C87.7702 45.1582 89.0068 44.8828 90.672 44.168C92.3181 43.4613 94.2706 42.3746 96.5382 40.875C96.8294 40.6824 97.0258 40.3405 97.0363 39.9453C97.1312 36.3702 97.1779 33.618 97.1779 31.6797ZM219.548 31.6797C219.548 30.2256 219.508 28.2974 219.431 25.8887C215.995 26.2058 212.788 27.6416 209.775 30.2979C206.553 33.1919 205.011 36.5964 205.011 40.6172C205.011 42.1753 205.453 43.2097 206.175 43.9443C207.04 44.7607 208.034 45.1581 209.269 45.1582L209.269 47.2029L208.943 47.1963C207.326 47.1264 205.929 46.5325 204.753 45.4154C203.636 44.2983 203.043 42.8227 202.973 40.9893L202.966 40.6174C202.966 35.9761 204.785 32.0248 208.422 28.7634C212.123 25.502 216.2 23.8399 220.653 23.7772C221.073 23.7772 221.418 24.11 221.433 24.5299C221.54 27.5567 221.593 29.94 221.593 31.6798L221.584 33.3057C221.566 35.0826 221.522 37.3139 221.451 39.9996L221.44 40.1934C221.357 41.158 220.849 42.0429 220.037 42.5804C215.377 45.6621 211.787 47.2029 209.269 47.2029L209.269 45.1582C210.14 45.1582 211.378 44.8829 213.043 44.168C214.689 43.4613 216.641 42.3745 218.908 40.875C219.2 40.6824 219.396 40.3406 219.406 39.9453C219.501 36.3702 219.548 33.618 219.548 31.6797ZM402.076 44.6875L402.076 46.7325H401.283L401.282 44.6875H402.076ZM404.102 41.2539L406.03 41.9345C405.733 42.8526 405.471 43.6719 405.243 44.3923L405.151 44.6465C404.68 45.8093 403.595 46.6191 402.346 46.7217L402.076 46.7325L402.076 44.6875C402.617 44.6875 403.119 44.3276 403.293 43.7773C403.522 43.051 403.786 42.2263 404.084 41.3047L404.092 41.2793L404.102 41.2539ZM428.133 44.5938L428.133 46.6384H416.927L416.928 44.5938H428.133ZM420.954 9.06094C422.448 9.14593 424.185 9.22195 426.163 9.28901C427.638 9.33819 428.892 9.38255 429.924 9.42209C431.703 9.49028 433.052 10.994 432.962 12.7727L431.401 43.5321L431.389 43.6943C431.222 45.3567 429.821 46.6383 428.133 46.6384L428.133 44.5938C428.786 44.5937 429.325 44.0812 429.359 43.4287L430.92 12.6689C430.954 12.0052 430.464 11.4897 429.846 11.4658C428.818 11.4265 427.568 11.3821 426.095 11.333C424.106 11.2656 422.352 11.1886 420.838 11.1025C420.078 11.0593 419.534 11.6155 419.518 12.2314C419.498 12.9771 419.478 13.8292 419.458 14.7881C419.396 17.722 419.301 20.0138 419.173 21.6396C419.106 23.2762 418.913 25.5146 418.6 28.3311C418.344 31.1305 417.989 33.5374 417.524 35.5312L417.52 35.5469C417.055 37.4734 416.366 39.5651 415.466 41.8174C415.243 42.4004 415.317 43.1429 415.672 43.751C416.019 44.3447 416.491 44.5938 416.928 44.5938L416.927 46.6384L416.684 46.6299C414.199 46.4455 412.648 43.4631 413.556 41.0878C414.325 39.1671 414.924 37.3904 415.357 35.7578L415.532 35.0667C415.971 33.1851 416.316 30.8645 416.567 28.1048C416.88 25.2825 417.069 23.0873 417.131 21.5193C417.257 19.9513 417.351 17.6934 417.414 14.7456L417.474 12.177C417.523 10.3359 419.115 8.95637 420.954 9.06094ZM443.943 44.4053L443.944 46.4503H442.559L442.559 44.4053H443.943ZM408.218 18.791C408.218 15.1277 408.103 11.0887 407.871 6.67285C407.705 3.51211 410.299 0.893621 413.457 1.01953C415.833 1.11428 418.292 1.18167 420.833 1.22266L423.672 1.27637C426.379 1.33546 428.687 1.41252 430.593 1.50781C432.318 1.59408 434.069 1.75152 435.845 1.98047C438.406 2.31071 440.263 4.46449 440.353 6.97168C440.507 11.2967 440.661 17.4523 440.815 25.4316C441.011 33.0546 441.188 38.992 441.346 43.2471C441.37 43.8887 441.899 44.4051 442.559 44.4053L442.559 46.4503C440.808 46.4503 439.367 45.0725 439.302 43.3226C439.144 39.0536 438.966 33.1029 438.769 25.4706C438.654 19.4885 438.539 14.538 438.424 10.6191L438.309 7.04455C438.254 5.50027 437.116 4.20661 435.583 4.00905C433.858 3.78663 432.16 3.63368 430.49 3.55019C427.982 3.42475 424.752 3.33067 420.8 3.26795C418.244 3.22672 415.769 3.15838 413.375 3.06294C411.418 2.9849 409.811 4.60976 409.913 6.566C410.147 11.0107 410.263 15.0857 410.263 18.791L410.259 19.5391C410.238 21.2747 410.146 22.9383 409.981 24.5298L409.881 25.8408C409.775 27.0992 409.652 28.1989 409.511 29.1397L409.455 29.5996C409.304 30.7041 409.009 32.0247 408.57 33.5614L407.982 35.7959C407.809 36.4387 407.661 36.9797 407.535 37.4187L407.3 38.1943C407.018 39.088 406.594 40.3343 406.029 41.9336L404.102 41.2539C404.855 39.1203 405.337 37.6678 405.568 36.8564C405.812 36.0031 406.152 34.7367 406.59 33.0479L406.597 33.0234L406.604 33C407.088 31.3053 407.368 29.9557 407.477 28.9258L407.482 28.8809L407.488 28.8359C407.666 27.6532 407.817 26.1742 407.941 24.3887L407.943 24.3545L407.947 24.3193C408.128 22.5768 408.218 20.7344 408.218 18.791ZM353.124 17.1917C353.124 14.2755 354.124 12.1534 356.125 10.8262L356.322 10.7002C358.455 9.32037 361.026 8.63046 364.037 8.63046C367.02 8.63046 369.497 8.79923 371.467 9.13679C372.839 9.37167 373.756 10.5966 373.8 11.987L374.171 23.6898C374.188 24.2409 374.074 24.7932 373.789 25.2652L373.626 25.5264C371.916 28.1858 369.378 29.5159 366.012 29.516L366.013 27.4707C368.814 27.4706 370.72 26.3927 372.038 24.209C372.081 24.1375 372.135 23.9919 372.127 23.7549L371.756 12.0518C371.738 11.4773 371.39 11.1983 371.122 11.1523C369.307 10.8413 366.955 10.6758 364.037 10.6758C361.347 10.6758 359.178 11.2885 357.434 12.417L357.397 12.4404C355.997 13.3053 355.169 14.7241 355.169 17.1914C355.169 19.95 356.234 22.3273 358.532 24.416C360.903 26.5079 363.379 27.4707 366.013 27.4707L366.012 29.516L365.415 29.502C362.446 29.3622 359.697 28.1751 357.169 25.941C354.472 23.495 353.124 20.5785 353.124 17.1917ZM109.076 29.5156C109.076 32.0869 108.916 35.8312 108.603 40.7207L108.604 40.7217C108.367 45.3358 108.243 48.8297 108.231 51.2207C108.228 51.6365 108.183 52.127 108.022 52.6387C107.69 53.6935 107.168 54.6904 106.34 55.4336C105.471 56.2138 104.406 56.5859 103.269 56.5859C101.36 56.5859 99.7964 55.6012 98.5929 54.1572C98.0581 53.5154 97.63 52.8279 97.3185 52.0996C93.942 54.5418 90.3048 55.834 86.4279 55.834C82.5564 55.8339 79.1421 54.4241 76.2706 51.6963L76.2511 51.6777L76.2326 51.6592C73.4044 48.8309 71.965 45.3636 71.965 41.3701C71.965 34.9454 74.4733 29.1844 79.3078 24.1484L79.3175 24.1387C84.2232 19.0986 89.9068 16.4639 96.3068 16.4639C96.3442 16.4639 96.3817 16.466 96.4191 16.4668C96.0207 14.2181 95.3245 12.6642 94.4591 11.6514C93.4617 10.4842 92.0652 9.8291 90.0031 9.8291C88.124 9.82913 85.8924 10.4965 83.2667 12.0508C80.8327 13.4914 77.3621 12.682 76.213 9.75195C75.5564 8.07701 75.8744 5.9536 77.504 4.66406C79.0736 3.42214 80.8937 2.42414 82.9406 1.65234C85.6655 0.562395 88.3999 2.09062e-05 91.132 0C97.16 0 101.81 2.677 104.826 7.88867C107.744 12.9302 109.076 20.2286 109.076 29.5156ZM231.447 29.5156C231.447 32.0917 231.287 35.8451 230.973 40.748C230.737 45.3493 230.614 48.8342 230.602 51.2207C230.599 51.6365 230.553 52.127 230.392 52.6387C230.06 53.6935 229.539 54.6905 228.711 55.4336C227.842 56.214 226.776 56.5859 225.639 56.5859C223.731 56.5859 222.166 55.6013 220.963 54.1572C220.428 53.5153 220.001 52.8271 219.69 52.0986C216.313 54.5411 212.676 55.8339 208.799 55.834C204.927 55.834 201.512 54.4243 198.641 51.6963L198.604 51.6592C195.775 48.8308 194.335 45.3637 194.335 41.3701C194.335 34.9453 196.844 29.1845 201.679 24.1484L201.689 24.1387C206.594 19.0987 212.277 16.4639 218.677 16.4639C218.714 16.4639 218.752 16.466 218.789 16.4668C218.391 14.218 217.695 12.6642 216.829 11.6514C215.832 10.4843 214.436 9.82919 212.374 9.8291C210.495 9.8291 208.263 10.4966 205.638 12.0508C203.204 13.4916 199.733 12.682 198.584 9.75195C197.927 8.07708 198.245 5.95366 199.874 4.66406C201.444 3.42221 203.264 2.42413 205.311 1.65234C208.036 0.562325 210.771 0 213.503 0C219.531 0.000112933 224.181 2.67711 227.197 7.88867C230.115 12.9302 231.447 20.2287 231.447 29.5156ZM499.554 29.1396C499.554 32.1149 499.223 35.0863 498.565 38.0508C497.966 40.9633 497.007 43.8319 495.694 46.6543C494.299 49.654 492.269 52.1733 489.624 54.1914L489.617 54.1963C487.059 56.1322 484.081 57.2521 480.741 57.5811C480.344 57.6202 479.949 57.6085 479.567 57.5537C473.494 56.6831 468.646 54.0093 465.209 49.4727L465.204 49.4668L465.2 49.4609C461.76 44.8508 460.09 39.2598 460.09 32.8086C460.09 30.1669 460.354 27.2636 460.869 24.1064L460.872 24.0859L460.876 24.0664C461.458 20.9003 462.295 17.5882 463.383 14.1318C464.529 10.4923 466.271 7.38704 468.645 4.87402C471.12 2.25268 474.119 0.846763 477.564 0.84668C484.336 0.84668 489.773 3.97513 493.75 9.9375C497.619 15.6759 499.554 22.0951 499.554 29.1396ZM328.04 27.917C328.04 31.1621 327.78 34.2903 327.257 37.2988C326.79 40.2782 325.933 43.3295 324.697 46.4502L324.695 46.457L324.693 46.4639C323.361 49.7575 321.274 52.4527 318.446 54.5029L318.439 54.5088C315.59 56.5542 312.174 57.5273 308.308 57.5273C306.714 57.5273 305.144 57.3448 303.6 56.9805C302.94 56.8248 302.195 56.9738 301.638 57.3438C301.101 57.7007 300.882 58.1496 300.893 58.5879C301.08 66.3658 301.248 72.4066 301.397 76.7139C301.415 77.2425 301.364 77.8748 301.123 78.5205C300.729 79.577 300.127 80.5408 299.225 81.2383C298.3 81.9528 297.213 82.2694 296.078 82.2695C294.332 82.2695 292.771 81.5287 291.432 80.3467C290.204 79.2701 289.377 77.9177 288.988 76.335C288.882 75.9004 288.858 75.4932 288.863 75.1543L289.939 6.45508C289.984 3.55658 292.615 1.38884 295.469 1.89844L296.683 2.11523C297.714 2.29932 298.379 2.98876 298.733 3.52441C298.829 3.67021 298.916 3.82607 298.993 3.98926C301.876 2.6006 304.829 1.88184 307.838 1.88184C314.255 1.88194 319.343 4.69265 322.908 10.1455C326.338 15.3915 328.04 21.3362 328.04 27.917ZM347.114 19.7861C347.228 22.8584 348.196 25.6 350.019 28.0108C351.506 29.9156 353.268 31.459 355.305 32.6412C356.582 33.3822 357.428 34.7706 357.147 36.22C355.146 46.5227 349.358 53.2274 339.784 56.3339L339.565 56.417C338.5 56.8854 337.919 58.0966 338.332 59.207C338.693 60.1748 339.693 60.7362 340.685 60.5371L340.883 60.4869C347.827 58.3619 352.942 55.6273 356.228 52.2832C359.302 49.2089 361.928 44.6338 364.107 38.5586L364.537 37.3238C364.989 35.9843 366.153 35.0885 367.543 34.8343C370.157 34.3565 373.275 36.1076 373.153 38.762L372.522 52.4478L372.519 52.6475C372.521 52.8466 372.543 53.045 372.596 53.2373C372.891 54.3243 373.488 55.2606 374.385 56.0463C375.452 56.9244 376.518 57.3634 377.584 57.3634C378.937 57.3634 379.936 56.6031 380.579 55.0823C380.691 54.8183 380.747 54.5358 380.763 54.25L380.767 53.9633L379.44 6.47008C379.402 5.10909 378.529 3.91243 377.247 3.53125L376.985 3.46618C374.51 2.9664 371.977 2.68553 369.385 2.62305L368.27 2.6094C360.932 2.6094 355.57 3.70699 352.183 5.90217L351.87 6.11426C348.692 8.37559 347.103 12.7269 347.103 19.1673L347.114 19.7861Z" fill="#7393CC"/>
</svg>
