<svg width="580" height="48" viewBox="0 0 580 48" fill="none" xmlns="http://www.w3.org/2000/svg">
<path d="M297.414 25.002C297.414 22.5332 296.818 20.3099 295.626 18.332L295.379 17.9395C294.107 15.9944 292.368 14.9606 290.161 14.8389L289.713 14.8271C288.223 14.8272 286.747 15.2927 285.284 16.2236C285.271 16.0906 285.261 15.921 285.254 15.7148L285.244 14.9863L283.01 14.5879L282.53 45.1934C282.637 45.7519 282.903 46.2175 283.328 46.5898C283.724 46.9389 284.13 47.135 284.546 47.1787L284.726 47.1885C285.374 47.1883 285.823 46.826 286.074 46.1016L286.122 45.9512C286.042 43.69 285.949 40.2314 285.843 35.5762C287.065 36.2744 288.333 36.6458 289.648 36.6895L289.912 36.6943C291.402 36.6943 292.666 36.321 293.703 35.5762C294.701 34.8529 295.453 33.9196 295.96 32.7754L296.058 32.5439C296.563 31.2671 296.909 30.0301 297.095 28.833C297.308 27.6093 297.414 26.3321 297.414 25.002ZM415.225 25.002C415.225 22.5331 414.628 20.3099 413.436 18.332L413.189 17.9395C411.918 15.9942 410.178 14.9605 407.971 14.8389L407.522 14.8271C406.033 14.8272 404.557 15.2927 403.094 16.2236C403.067 15.9576 403.054 15.545 403.054 14.9863L400.819 14.5879L400.341 45.1934C400.447 45.7519 400.713 46.2175 401.139 46.5898C401.534 46.939 401.94 47.1351 402.356 47.1787L402.535 47.1885C403.227 47.1884 403.692 46.7758 403.932 45.9512C403.852 43.69 403.759 40.2314 403.652 35.5762C404.874 36.2745 406.143 36.6459 407.459 36.6895L407.723 36.6943C409.119 36.6943 410.317 36.3666 411.316 35.7119L411.514 35.5762C412.577 34.8048 413.362 33.794 413.867 32.5439C414.373 31.267 414.719 30.0301 414.905 28.833C415.091 27.7624 415.195 26.6511 415.219 25.499L415.225 25.002ZM208.643 34.6992C208.643 34.1268 208.686 33.5184 208.77 32.877L208.862 32.166H211.569C211.693 31.7669 211.847 31.2761 212.034 30.6963L212.037 30.6855L212.041 30.6758C212.36 29.7709 212.565 29.1534 212.664 28.8076C212.768 28.4451 212.912 27.9077 213.098 27.1914L213.104 27.1719C213.309 26.4516 213.429 25.8763 213.476 25.4355L213.478 25.418L213.479 25.3994C213.555 24.8961 213.621 24.2677 213.673 23.5098V23.4951L213.675 23.4814C213.751 22.7406 213.79 21.9576 213.79 21.1318C213.79 19.1579 213.711 16.9277 213.553 14.4404L213.494 13.5225L214.412 13.5723C215.891 13.6515 217.45 13.704 219.09 13.7305C220.77 13.7571 222.151 13.7977 223.228 13.8516C224.05 13.8927 224.887 13.972 225.737 14.0898L226.593 14.2207L227.246 14.3291L227.275 14.9902C227.356 16.8094 227.435 19.796 227.515 23.9434C227.607 27.5172 227.691 30.2173 227.763 32.0459H230.907V34.0605C230.907 34.7407 230.92 35.7127 230.946 36.9795L231.006 38.584C231.019 39.0159 231.026 39.3447 231.026 39.5674C231.026 40.3756 231 41.0275 230.94 41.5039L230.829 42.3955L227.682 41.6953L227.548 41.2275C227.431 40.8196 227.32 40.312 227.211 39.7129L227.208 39.6982L227.206 39.6826C227.127 39.1292 227.035 38.5217 226.929 37.8604C226.88 37.5579 226.834 37.2961 226.797 37.0732C226.149 37.036 225.38 36.9894 224.489 36.9307L220.175 36.6309C217.287 36.4213 214.955 36.2752 213.178 36.1885L212.238 41.7881L208.962 41.0605V40.4053C208.962 40.1507 208.912 39.323 208.805 37.8711C208.698 36.4336 208.643 35.3703 208.643 34.6992ZM234.276 34.6992C234.276 34.1268 234.32 33.5184 234.403 32.877L234.496 32.166H237.203C237.327 31.7669 237.48 31.2761 237.668 30.6963L237.671 30.6855L237.675 30.6758C237.994 29.7709 238.199 29.1534 238.298 28.8076C238.401 28.4451 238.546 27.9077 238.731 27.1914L238.737 27.1719C238.943 26.4516 239.063 25.8763 239.109 25.4355L239.111 25.418L239.113 25.3994C239.189 24.8961 239.253 24.2677 239.306 23.5098L239.307 23.4951L239.309 23.4814C239.385 22.7406 239.424 21.9576 239.424 21.1318C239.424 19.1579 239.345 16.9277 239.187 14.4404L239.128 13.5225L240.046 13.5723C241.524 13.6515 243.084 13.704 244.724 13.7305C246.404 13.7571 247.784 13.7977 248.861 13.8516C249.684 13.8927 250.521 13.972 251.371 14.0898L252.227 14.2207L252.88 14.3291L252.909 14.9902C252.989 16.8094 253.069 19.796 253.148 23.9434C253.241 27.5172 253.324 30.2173 253.396 32.0459H256.541V34.0605C256.541 34.7407 256.554 35.7127 256.58 36.9795L256.64 38.584C256.653 39.0159 256.66 39.3447 256.66 39.5674C256.66 40.3756 256.634 41.0275 256.574 41.5039L256.463 42.3955L253.315 41.6953L253.182 41.2275C253.065 40.8196 252.954 40.312 252.845 39.7129L252.842 39.6982L252.84 39.6826C252.761 39.1292 252.668 38.5217 252.562 37.8604C252.514 37.5579 252.468 37.2961 252.431 37.0732C251.783 37.036 251.014 36.9894 250.123 36.9307L245.809 36.6309C242.921 36.4213 240.589 36.2752 238.812 36.1885L237.872 41.7881L234.596 41.0605V40.4053C234.596 40.1507 234.546 39.323 234.438 37.8711C234.332 36.4336 234.276 35.3703 234.276 34.6992ZM54.7686 20.6924C54.7686 18.0203 55.0952 15.6085 55.7627 13.4668L55.7656 13.457C56.4623 11.3114 57.512 9.41887 58.917 7.78906C60.293 6.19291 61.8367 4.81479 63.5469 3.65625C65.2409 2.50868 67.276 1.38326 69.6455 0.279297L70.2461 0L70.6445 0.530273C70.7635 0.688817 70.8874 0.823358 71.0156 0.936523C71.3285 1.15199 71.5701 1.44767 71.7578 1.7793L71.9404 2.09473C72.1375 2.45975 72.3767 2.97107 72.6543 3.60547L72.9473 4.27441L72.3154 4.64062C71.794 4.94248 70.9692 5.38866 69.8506 5.97461C68.7387 6.55705 67.8171 7.05765 67.084 7.47656L67.0742 7.48145L67.0645 7.4873C66.3626 7.86331 65.5029 8.41312 64.4814 9.14648L64.4785 9.14844C63.4995 9.84402 62.6891 10.53 62.04 11.2041L62.0391 11.2031C61.4323 11.8342 60.8331 12.6526 60.2471 13.6709L60.248 13.6719C60.0342 14.0509 59.843 14.4398 59.6748 14.8379C59.9064 14.7421 60.1464 14.653 60.3945 14.5703C61.429 14.2079 62.3845 14.0098 63.2471 14.0098C65.8803 14.0098 67.9948 14.7767 69.4316 16.4375C70.8487 18.0757 71.4863 20.4475 71.4863 23.4062C71.4863 24.671 71.3896 26.0113 71.1992 27.4258V27.4277C71.0063 28.8332 70.6636 30.3643 70.1758 32.0176L70.1748 32.0166C69.6915 33.7446 68.9008 35.1987 67.7822 36.3467L67.7812 36.3457C66.6498 37.5612 65.244 38.1893 63.6064 38.1895C61.9392 38.1895 60.47 37.7477 59.2451 36.8291C58.0339 35.9207 57.1156 34.6133 56.4619 32.9648L56.457 32.9531C55.8468 31.3443 55.4078 29.5546 55.1348 27.5889L55.1338 27.5762C54.8892 25.5925 54.7686 23.2963 54.7686 20.6924ZM91.9131 25.5215C91.9131 22.7017 91.1416 20.1472 89.5986 17.8594C88.1522 15.6898 86.2616 14.537 83.9268 14.4014L83.4541 14.3877C82.2571 14.3877 81.2062 14.8668 80.3018 15.8242L80.1348 16.0068C79.3132 16.9327 78.6906 18.0692 78.2666 19.416L78.1016 19.9512C77.7292 21.1935 77.438 22.3849 77.2285 23.5254C77.0157 24.8289 76.9102 26.0131 76.9102 27.0771L76.918 27.5566C76.9959 29.9289 77.6583 31.9502 78.9053 33.6211C80.1523 35.2671 81.8901 36.2816 84.1191 36.665L84.5713 36.7334C85.8183 36.6336 86.9134 36.2537 87.8564 35.5928L88.043 35.457C88.9275 34.782 89.6286 33.9641 90.1465 33.0039L90.3574 32.584C90.8895 31.4401 91.2752 30.2828 91.5146 29.1123C91.7474 28.0648 91.8781 27.0172 91.9072 25.9697L91.9131 25.5215ZM203.777 25.5215C203.777 22.7017 203.006 20.1472 201.463 17.8594C200.016 15.6898 198.126 14.5369 195.791 14.4014L195.318 14.3877C194.121 14.3877 193.07 14.8667 192.166 15.8242L191.999 16.0068C191.178 16.9327 190.555 18.0692 190.131 19.416L189.966 19.9512C189.593 21.1934 189.303 22.385 189.094 23.5254L189.019 24.0088C188.856 25.1232 188.774 26.146 188.774 27.0771L188.782 27.5566C188.86 29.9289 189.523 31.9502 190.77 33.6211C192.017 35.2671 193.754 36.2816 195.983 36.665L196.436 36.7334C197.683 36.6336 198.778 36.2537 199.721 35.5928L199.907 35.457C200.792 34.782 201.493 33.9641 202.011 33.0039L202.222 32.584C202.754 31.4401 203.139 30.2828 203.379 29.1123C203.612 28.0648 203.742 27.0172 203.771 25.9697L203.777 25.5215ZM19.9795 14.4639C20.0327 25.2705 20.1651 32.2542 20.376 35.4434L20.3867 35.6025L20.3359 35.7549C20.1728 36.2442 19.9234 36.6893 19.5439 37.0146C19.1501 37.3522 18.6739 37.5107 18.1641 37.5107C17.468 37.5107 16.8454 37.2189 16.3096 36.75C15.7547 36.2645 15.3913 35.6548 15.248 34.9385L15.2344 34.8701L15.2324 34.7998C15.2055 33.7515 15.1924 32.1994 15.1924 30.1494V25.5508L15.2227 22.8604C15.2293 22.091 15.2324 21.4485 15.2324 20.9326C15.2324 19.5612 15.2245 18.4391 15.2109 17.5654C14.3736 17.6733 13.5427 17.7387 12.7178 17.7588C12.0706 17.7746 11.5476 17.7953 11.1436 17.8193C11.0888 18.6257 11.0414 19.6834 11.001 20.9971C10.9477 22.728 10.8941 24.2605 10.8408 25.5938L10.8398 25.5928C10.8113 26.9444 10.6472 28.472 10.3506 30.1709L10.3496 30.1729C10.0483 31.8712 9.60488 33.3523 9.00879 34.6035C8.41512 35.8799 7.49003 37.0024 6.26172 37.9736L6.26074 37.9727C5.02659 38.9961 3.54254 39.658 1.83203 39.9717L1.15723 40.0957L0 36.9854L0.746094 36.6914C1.50116 36.394 2.19947 35.9215 2.8418 35.2578C3.49229 34.5571 4.02448 33.8399 4.44141 33.1055C4.85167 32.3565 5.21524 31.4003 5.52246 30.2227C5.83674 29.0179 6.05522 27.9844 6.18262 27.1182L6.18457 27.1084L6.18555 27.0986C6.33837 26.2072 6.45643 25.0952 6.53516 23.7568C6.61476 22.4035 6.65332 21.4123 6.65332 20.7725V20.7412C6.67934 20.0646 6.69336 19.1586 6.69336 18.0195C6.69336 17.19 6.72966 16.4954 6.81152 15.9521C6.85245 15.6805 6.90775 15.4275 6.9834 15.2051C7.05609 14.9914 7.16578 14.7511 7.34668 14.5537L7.35156 14.5488C7.50522 14.3842 7.69114 14.2827 7.83887 14.2178C7.99555 14.1489 8.1701 14.0949 8.34961 14.0508C8.70873 13.9625 9.1634 13.8953 9.69629 13.8438C10.7661 13.7402 12.2498 13.6904 14.1338 13.6904C17.1063 13.6904 18.7433 13.6766 19.1074 13.6523L19.9746 13.5947L19.9795 14.4639ZM112.998 18.3779C112.998 15.4147 111.325 13.8867 107.98 13.7939L107.651 13.7891C106.747 13.7891 104.233 14.2286 100.109 15.1064L99.2314 34.2998C100.603 35.7962 102.641 36.5911 105.346 36.6846L105.896 36.6943C108.396 36.6943 110.405 36.0417 111.921 34.7383C113.367 33.5163 114.135 31.8387 114.226 29.7051L114.235 29.2715C114.235 26.7979 113.198 24.8561 111.123 23.4463C111.655 23.1271 112.094 22.4752 112.439 21.4912C112.812 20.4803 112.998 19.442 112.998 18.3779ZM475.047 18.3779C475.047 15.4147 473.374 13.8867 470.029 13.7939L469.7 13.7891C468.796 13.7891 466.282 14.2286 462.158 15.1064L461.28 34.2998C462.652 35.7962 464.69 36.5911 467.395 36.6846L467.944 36.6943C470.445 36.6943 472.453 36.0418 473.97 34.7383C475.416 33.5163 476.185 31.8387 476.275 29.7051L476.284 29.2715C476.284 26.7978 475.246 24.8561 473.172 23.4463C473.704 23.1271 474.143 22.4752 474.488 21.4912C474.861 20.4803 475.047 19.442 475.047 18.3779ZM453.922 29.6709C453.922 28.3242 453.665 27.1061 453.15 26.0166L453.044 25.8008C452.485 24.6304 451.701 23.9385 450.69 23.7256C451.179 23.3531 451.586 22.8275 451.912 22.1494L452.047 21.8496C452.393 20.9984 452.565 20.1336 452.565 19.2559C452.565 17.9092 452.133 16.8667 451.268 16.1279L451.089 15.9844C450.166 15.2861 449.033 14.9147 447.689 14.8711L447.418 14.8672C445.343 14.8672 443.747 15.3855 442.63 16.4229L443.348 17.5801C444.784 17.1544 445.875 16.9414 446.62 16.9414L446.979 16.9541C448.727 17.0742 449.737 18.0944 450.012 20.0146L450.008 20.2305C449.926 22.4274 448.584 23.5254 445.981 23.5254H445.583C445.424 23.4988 445.303 23.4864 445.224 23.4863L445.383 25.7207C445.622 25.6941 446.008 25.6807 446.54 25.6807L446.797 25.6846C448.064 25.7236 449.109 26.0545 449.932 26.6777C450.836 27.3161 451.289 28.2741 451.289 29.5508L451.283 29.7744C451.233 30.8842 450.81 31.9005 450.012 32.8232C449.16 33.8075 448.176 34.2998 447.059 34.2998V33.4824C447.898 33.4824 448.669 33.1264 449.394 32.2891C450.128 31.4393 450.472 30.5339 450.472 29.5508C450.472 28.4929 450.113 27.8058 449.461 27.3457L449.449 27.3379L449.438 27.3301C448.736 26.7976 447.791 26.498 446.54 26.498C446.012 26.498 445.665 26.512 445.474 26.5332L444.629 26.627L444.346 22.6689H445.224C445.352 22.669 445.497 22.6867 445.642 22.709H445.981C447.224 22.709 448.005 22.4359 448.468 22.0322C448.902 21.6541 449.183 21.049 449.192 20.0674C449.059 19.2011 448.767 18.6523 448.396 18.3154C448.02 17.9755 447.462 17.7588 446.62 17.7588C445.998 17.7588 445.001 17.9432 443.58 18.3643L442.982 18.541L442.653 18.0117L441.58 16.2822L442.073 15.8242C443.389 14.6023 445.212 14.0498 447.418 14.0498C449.025 14.0498 450.431 14.4618 451.582 15.333C452.805 16.2588 453.383 17.6111 453.383 19.2559C453.383 20.244 453.187 21.213 452.804 22.1572L452.801 22.166C452.605 22.6331 452.371 23.0563 452.098 23.4307C452.805 23.882 453.364 24.5727 453.782 25.4482C454.426 26.7153 454.739 28.1285 454.739 29.6709C454.739 31.7256 454.072 33.5395 452.744 35.0742C451.386 36.6432 449.615 37.4316 447.498 37.4316C446.421 37.4316 445.193 37.1258 443.837 36.5723C442.479 36.0178 441.374 35.158 441.374 33.8213C441.374 33.3535 441.534 32.8767 441.958 32.5469C442.343 32.2474 442.826 32.166 443.269 32.166C443.965 32.1661 444.739 32.4798 445.537 32.9453C446.265 33.3471 446.759 33.4823 447.059 33.4824V34.2998L446.863 34.29C446.392 34.2435 445.819 34.0336 445.144 33.6611C444.468 33.2653 443.905 33.0425 443.454 32.9932L443.269 32.9824C442.55 32.9824 442.19 33.2626 442.19 33.8213L442.198 33.9688C442.275 34.7014 442.924 35.3176 444.146 35.8164C445.287 36.2817 446.284 36.5433 447.14 36.6016L447.498 36.6143C449.269 36.6142 450.736 36.006 451.898 34.79L452.127 34.5391C453.324 33.1558 453.922 31.533 453.922 29.6709ZM333.898 21.3311C333.898 18.4156 334.019 16.0715 334.266 14.3145L334.405 13.3223L337.578 14.4512L337.671 14.9023C337.899 16.0156 338.02 17.566 338.047 19.5244C338.061 20.5305 338.075 21.3283 338.089 21.9219C338.323 21.7702 338.548 21.5742 338.761 21.3223L338.772 21.3086C339.324 20.6852 339.769 19.976 340.108 19.1768L340.112 19.167L340.117 19.1572C340.52 18.2704 340.937 17.3964 341.367 16.5361C341.836 15.5979 342.445 14.7936 343.194 14.1338L343.2 14.1289L343.206 14.123C344.05 13.4093 345.05 13.0518 346.168 13.0518C346.782 13.0518 347.631 13.2479 348.648 13.5693L349.293 13.7725L348.954 16.6523L348.108 16.5107C348.012 16.4947 347.85 16.4824 347.604 16.4824C346.808 16.4824 346.09 16.8064 345.424 17.5605L345.425 17.5615C344.72 18.3637 344.187 19.2601 343.823 20.2549C343.433 21.3674 342.932 22.4377 342.321 23.4648C342.048 23.9245 341.744 24.3344 341.406 24.6709C341.975 25.0822 342.471 25.6362 342.899 26.3086C343.654 27.4551 344.221 28.6514 344.591 29.8965L344.728 30.292C345.062 31.2023 345.51 32.0438 346.069 32.8193C346.632 33.5744 347.254 33.8818 347.964 33.8818V34.6992L347.775 34.6934C346.909 34.6423 346.164 34.2352 345.541 33.4717L345.41 33.3018C344.719 32.3441 344.186 31.2933 343.813 30.1494C343.511 29.1254 343.066 28.1318 342.479 27.1689L342.218 26.7578C341.526 25.6671 340.687 25.0021 339.703 24.7627C340.308 24.623 340.874 24.1678 341.397 23.3965L341.619 23.0469C342.204 22.0627 342.683 21.0386 343.056 19.9746C343.455 18.8839 344.04 17.8994 344.812 17.0215C345.61 16.1172 346.541 15.665 347.604 15.665L347.964 15.6748C348.07 15.6815 348.163 15.6918 348.243 15.7051L348.402 14.3486C347.518 14.0694 346.838 13.9119 346.36 13.877L346.168 13.8691C345.237 13.8691 344.425 14.1618 343.733 14.7471C343.068 15.3323 342.523 16.0511 342.098 16.9023L341.47 18.1885C341.263 18.6209 341.06 19.057 340.86 19.4961L340.716 19.8203C340.364 20.568 339.92 21.2444 339.385 21.8496C338.8 22.5412 338.108 22.9539 337.31 23.0869C337.283 22.6347 337.256 21.4505 337.229 19.5352C337.206 17.8361 337.112 16.4832 336.946 15.4766L336.87 15.0664L335.075 14.4277C334.836 16.1302 334.716 18.4315 334.716 21.3311L334.706 24.334C334.686 27.3865 334.635 30.5886 334.556 33.9404C334.662 34.4991 334.929 34.9779 335.354 35.377C335.75 35.7029 336.156 35.8861 336.572 35.9268L336.751 35.9355C337.399 35.9355 337.849 35.5732 338.1 34.8486L338.147 34.6992C337.881 31.1349 337.695 28.5542 337.589 26.958C337.775 26.8782 337.975 26.8379 338.188 26.8379L338.292 26.8418C338.814 26.8808 339.325 27.2117 339.823 27.835C340.355 28.5 340.848 29.3119 341.3 30.2695C341.779 31.2272 342.284 32.1849 342.816 33.1426C343.348 34.1002 344.027 34.9112 344.852 35.5762C345.625 36.1996 346.479 36.5314 347.416 36.5703L347.604 36.5742C347.804 36.5742 348.108 36.5293 348.518 36.4395L348.961 36.335L348.842 34.5791C348.523 34.6589 348.23 34.6992 347.964 34.6992V33.8818C348.149 33.8818 348.375 33.8533 348.644 33.7861L349.59 33.5498L349.823 36.9619L349.159 37.1279C348.523 37.2869 347.982 37.3916 347.604 37.3916C346.397 37.3916 345.3 36.989 344.338 36.2129C343.429 35.4795 342.683 34.5855 342.102 33.5391C341.564 32.5714 341.053 31.6032 340.568 30.6348L340.564 30.627L340.561 30.6182C340.129 29.7049 339.669 28.9506 339.186 28.3457C338.893 27.9802 338.651 27.8004 338.461 27.7178C338.572 29.3214 338.737 31.6278 338.962 34.6377L338.974 34.7852L338.933 34.9268C338.786 35.433 338.545 35.8977 338.16 36.2383C337.761 36.5918 337.272 36.7529 336.751 36.7529C336.043 36.7529 335.4 36.4728 334.835 36.0078L334.814 35.9912L334.795 35.9736C334.247 35.4597 333.893 34.8268 333.753 34.0938L333.737 34.0078L333.739 33.9209C333.846 29.4575 333.898 25.2608 333.898 21.3311ZM181.317 14.9346L182.272 35.0586L182.278 35.1982L182.238 35.333C182.089 35.8296 181.846 36.2845 181.459 36.6162C181.059 36.9589 180.574 37.1122 180.06 37.1123C179.334 37.1123 178.683 36.8048 178.122 36.3096C177.54 35.8223 177.163 35.1952 177.021 34.4521L177.003 34.3545L177.009 34.2539C177.034 33.7923 177.074 32.3075 177.127 29.7734L177.128 29.7646C177.208 27.2102 177.287 24.7752 177.367 22.46C177.424 20.7947 177.468 19.5457 177.498 18.7139C176.85 18.6896 176.029 18.6768 175.031 18.6768C173.466 18.6768 172.093 18.6264 170.913 18.5273C170.971 19.9332 171.02 22.47 171.061 26.1104C171.114 30.8872 171.167 33.622 171.218 34.3633L171.228 34.5078L171.188 34.6475C171.041 35.1537 170.8 35.6184 170.416 35.959C170.017 36.3127 169.527 36.4736 169.006 36.4736C168.298 36.4736 167.655 36.1935 167.09 35.7285L167.069 35.7119L167.051 35.6943C166.503 35.1804 166.148 34.5475 166.009 33.8145L165.989 33.7139L165.996 33.6123C166.075 32.2985 166.114 30.9846 166.114 29.6709C166.114 28.9867 166.101 27.8488 166.074 26.2529C166.048 24.655 166.034 23.3859 166.034 22.4482C166.034 19.6951 166.114 17.3942 166.276 15.5527L166.343 14.8008L181.317 14.9346ZM367.852 25.6807C367.852 18.1556 365.742 14.2752 361.522 14.04L361.107 14.0293C360.07 14.0293 359.019 14.2414 357.955 14.667C356.891 15.066 356.013 15.6121 355.321 16.3037L356.12 18.3389C357.796 17.0886 359.299 16.4629 360.629 16.4629L360.838 16.4678C362.966 16.5621 364.134 18.1167 364.34 21.1318C364.26 21.1318 364.14 21.1184 363.98 21.0918C363.848 21.0652 363.727 21.0518 363.621 21.0518C363.568 21.0385 363.515 21.0281 363.462 21.0215L363.303 21.0117C360.855 21.0117 358.661 22.0098 356.719 24.0049C354.804 25.9999 353.846 28.2342 353.846 30.708L353.852 30.9805C353.912 32.327 354.429 33.4864 355.401 34.459C356.465 35.4698 357.702 35.9755 359.112 35.9756C360.974 35.9756 362.731 35.1772 364.38 33.5811C364.353 33.6609 364.34 33.7943 364.34 33.9805C364.34 34.5656 364.54 35.0974 364.938 35.5762C365.288 35.995 365.667 36.2307 366.077 36.2832L366.255 36.2949C366.867 36.2949 367.279 35.8823 367.492 35.0576C367.492 34.0202 367.545 32.4642 367.651 30.3896C367.751 28.8333 367.814 27.5609 367.839 26.5732L367.852 25.6807ZM435.711 25.6807C435.711 18.1556 433.601 14.2752 429.382 14.04L428.967 14.0293C427.929 14.0293 426.878 14.2414 425.814 14.667C424.75 15.066 423.872 15.6121 423.181 16.3037L423.979 18.3389C425.654 17.0886 427.158 16.4629 428.488 16.4629L428.697 16.4678C430.826 16.5621 431.993 18.1168 432.199 21.1318C432.119 21.1318 431.999 21.1184 431.84 21.0918C431.707 21.0652 431.587 21.0518 431.48 21.0518C431.374 21.0252 431.267 21.0117 431.161 21.0117C428.714 21.0118 426.519 22.0098 424.577 24.0049C422.662 25.9999 421.704 28.2343 421.704 30.708C421.704 32.1711 422.223 33.4215 423.261 34.459C424.325 35.4699 425.562 35.9756 426.972 35.9756C428.834 35.9756 430.59 35.1772 432.239 33.5811C432.213 33.6609 432.199 33.7943 432.199 33.9805C432.199 34.5657 432.399 35.0974 432.798 35.5762C433.147 35.9951 433.526 36.2308 433.937 36.2832L434.114 36.2949C434.726 36.2949 435.139 35.8823 435.352 35.0576C435.352 34.0202 435.404 32.4642 435.511 30.3896C435.611 28.8333 435.673 27.5609 435.698 26.5732L435.711 25.6807ZM120.736 19.6152C120.736 18.1111 120.777 16.6719 120.857 15.2979L120.913 14.3398L123.646 14.9473L124.246 15.0801L124.284 15.6934C124.337 16.532 124.415 17.5186 124.521 18.6533C124.624 19.5458 124.734 20.5349 124.854 21.6201C125.65 21.4434 126.425 21.3516 127.18 21.3516C128.434 21.3516 129.616 21.6004 130.713 22.1045C131.782 22.5691 132.706 23.1981 133.475 23.9961C134.236 24.7865 134.835 25.6947 135.272 26.7148C135.714 27.7174 135.937 28.7579 135.938 29.8301C135.938 30.8821 135.711 31.864 135.248 32.7598C134.799 33.627 134.199 34.3769 133.451 35.0049L133.443 35.0117L133.437 35.0176C132.695 35.6106 131.843 36.0637 130.89 36.3838C129.918 36.7371 128.892 36.9121 127.818 36.9121C127.612 36.9121 127.181 36.8985 126.547 36.8721C125.884 36.8444 125.186 36.7749 124.452 36.667C123.725 36.5831 123.055 36.4562 122.446 36.2822C122.118 36.1884 121.794 36.0567 121.532 35.8545C121.256 35.6408 121.017 35.3207 120.979 34.8926L120.976 34.8555V34.8184C120.976 34.3798 120.963 33.7783 120.937 33.0107L120.936 32.9971V32.9824C120.936 32.1934 120.923 31.3234 120.896 30.3721L120.896 30.3604V30.3496C120.896 29.3996 120.883 28.4088 120.856 27.3779C120.83 26.3144 120.803 25.2893 120.776 24.3057V24.2842C120.776 23.3071 120.763 22.4111 120.736 21.5967V19.6152ZM318.165 26.3633C318.687 26.4024 319.198 26.7331 319.696 27.3564C320.228 28.0215 320.721 28.8333 321.173 29.791C321.652 30.722 322.157 31.6665 322.688 32.624C323.221 33.5817 323.887 34.3926 324.685 35.0576C325.458 35.681 326.312 36.0128 327.249 36.0518L327.438 36.0557C327.837 36.0557 328.302 35.9885 328.834 35.8555L328.714 34.1006C328.395 34.1803 328.103 34.2197 327.837 34.2197V33.4023C328.022 33.4023 328.247 33.3747 328.516 33.3076L329.463 33.0703L329.696 36.4824L329.032 36.6484C328.458 36.7921 327.923 36.873 327.438 36.873C326.231 36.873 325.133 36.4705 324.171 35.6943L324.161 35.6855C323.281 34.9525 322.553 34.0614 321.975 33.0205C321.439 32.0556 320.929 31.1032 320.446 30.1641L320.439 30.1523L320.434 30.1396C320.002 29.2263 319.542 28.4722 319.058 27.8672C318.741 27.4719 318.484 27.2945 318.288 27.2217C318.324 27.759 318.362 28.3194 318.397 28.9033C318.477 29.7528 318.556 30.6926 318.636 31.7227C318.715 32.7585 318.781 33.5659 318.834 34.1455L318.848 34.2998L318.805 34.4473C318.658 34.9536 318.418 35.4192 318.033 35.7598C317.634 36.1132 317.145 36.2743 316.624 36.2744C315.916 36.2744 315.273 35.9942 314.708 35.5293L314.688 35.5127L314.668 35.4941C314.12 34.9802 313.766 34.3473 313.626 33.6143L313.61 33.5293L313.612 33.4424C313.66 31.4387 313.684 29.3592 313.688 27.2041C313.488 27.265 313.214 27.4396 312.872 27.8672C312.384 28.4775 311.909 29.2377 311.449 30.1562C310.991 31.0988 310.493 32.0534 309.956 33.0205C309.375 34.067 308.629 34.961 307.72 35.6943L307.719 35.6934C306.781 36.4715 305.696 36.873 304.493 36.873C304.008 36.873 303.473 36.7921 302.898 36.6484L302.234 36.4824L302.467 33.0703L303.414 33.3076C303.676 33.3732 303.916 33.4023 304.134 33.4023V34.2197C303.841 34.2197 303.535 34.1804 303.216 34.1006L303.097 35.8555C303.496 35.9552 303.857 36.018 304.182 36.043L304.493 36.0557C305.504 36.0557 306.408 35.7226 307.206 35.0576C307.928 34.4756 308.538 33.7817 309.035 32.9756L309.241 32.624C309.773 31.6665 310.266 30.722 310.718 29.791C311.137 28.9532 311.576 28.2272 312.036 27.6133L312.234 27.3564C312.766 26.6915 313.312 26.3595 313.87 26.3594L314.03 26.3662C314.19 26.3812 314.349 26.4187 314.509 26.4785C314.509 28.8993 314.482 31.2273 314.429 33.4619C314.535 34.0204 314.801 34.4995 315.227 34.8984C315.622 35.2242 316.028 35.4074 316.444 35.4482L316.624 35.457C317.272 35.4569 317.722 35.0945 317.973 34.3701L318.021 34.2197C317.994 33.9272 317.964 33.5783 317.931 33.1729L317.82 31.7861C317.741 30.7488 317.661 29.8043 317.581 28.9531C317.528 28.0753 317.475 27.25 317.422 26.4785C317.608 26.3988 317.821 26.3594 318.061 26.3594L318.165 26.3633ZM486.8 14.9561C487.13 16.7184 487.332 19.0278 487.412 21.8672C487.456 23.4352 487.511 24.7746 487.571 25.8877C488.31 24.8869 489.311 23.5484 490.571 21.877C492.937 18.7407 494.516 16.4392 495.337 14.9512L495.524 14.6113L495.906 14.542C496.467 14.44 496.92 14.3692 497.169 14.3691C497.545 14.3691 497.922 14.4542 498.255 14.6719C498.59 14.8908 498.819 15.2037 498.963 15.5537H498.961C499.24 16.1744 499.37 17.1634 499.422 18.3809L500.181 34.8203L500.187 34.96L500.146 35.0928C499.997 35.5895 499.754 36.0451 499.367 36.377C498.967 36.7196 498.482 36.873 497.968 36.873C497.26 36.873 496.616 36.593 496.051 36.1279L496.031 36.1113L496.012 36.0928C495.464 35.5788 495.109 34.946 494.97 34.2129L494.953 34.125L494.956 34.0352C494.983 33.1566 495.049 31.0148 495.155 27.6104V27.6045C495.232 25.6249 495.3 23.9751 495.359 22.6562C491.767 26.8519 489.303 30.1222 487.934 32.4805C487.94 32.878 487.965 33.3838 488.009 34.002L488.02 34.1475L487.979 34.2881C487.832 34.7942 487.591 35.259 487.207 35.5996C486.808 35.9533 486.318 36.1143 485.797 36.1143C485.089 36.1143 484.446 35.8342 483.881 35.3691L483.86 35.3525L483.842 35.335C483.294 34.821 482.939 34.1882 482.8 33.4551L482.782 33.3643L482.785 33.2715C482.865 31.1215 482.958 27.973 483.064 23.8242V23.8193C483.197 19.6696 483.29 16.8606 483.344 15.3955L483.368 14.7344L484.021 14.6201L486.651 14.1631L486.8 14.9561ZM533.159 14.9561C533.49 16.7184 533.691 19.0278 533.771 21.8672C533.816 23.4352 533.87 24.7746 533.931 25.8877C534.669 24.8869 535.67 23.5484 536.931 21.877C539.296 18.7407 540.875 16.4392 541.696 14.9512L541.884 14.6113L542.266 14.542C542.827 14.44 543.279 14.3692 543.528 14.3691C543.904 14.3691 544.281 14.4542 544.614 14.6719C544.949 14.8908 545.178 15.2037 545.322 15.5537H545.32C545.6 16.1749 545.73 17.1651 545.782 18.3838L546.54 34.8203L546.546 34.96L546.506 35.0928C546.357 35.5895 546.114 36.0451 545.727 36.377C545.327 36.7196 544.841 36.873 544.327 36.873C543.619 36.873 542.976 36.5928 542.411 36.1279L542.391 36.1113L542.371 36.0928C541.823 35.5788 541.469 34.9459 541.329 34.2129L541.312 34.125L541.315 34.0352C541.342 33.1566 541.408 31.0148 541.515 27.6104V27.6045C541.591 25.6249 541.66 23.9751 541.719 22.6562C538.126 26.8519 535.662 30.1222 534.293 32.4805C534.3 32.878 534.324 33.3838 534.368 34.002L534.379 34.1475L534.338 34.2881C534.191 34.7943 533.951 35.259 533.566 35.5996C533.167 35.9533 532.678 36.1143 532.156 36.1143C531.448 36.1142 530.805 35.8342 530.24 35.3691L530.22 35.3525L530.201 35.335C529.653 34.821 529.299 34.1881 529.159 33.4551L529.142 33.3643L529.146 33.2715C529.225 31.1215 529.317 27.973 529.424 23.8242V23.8193C529.557 19.6696 529.651 16.8606 529.704 15.3955L529.728 14.7344L530.38 14.6201L533.011 14.1631L533.159 14.9561ZM524.239 16.7822C524.239 16.3399 524.066 15.9182 523.72 15.5166L523.562 15.3457C523.109 14.8935 522.563 14.6545 521.925 14.6279C514.264 15.0003 508.651 15.2921 505.086 15.5049L505.445 17.2607L513.187 17.6201C512.787 22.0627 512.402 27.5565 512.029 34.1006C512.136 34.6325 512.402 35.0847 512.827 35.457C513.199 35.7828 513.582 35.966 513.975 36.0068L514.145 36.0156C514.793 36.0155 515.242 35.6762 515.493 34.998L515.541 34.8584C515.461 33.1027 515.407 30.3227 515.381 26.5186C515.381 22.6882 515.315 19.7754 515.182 17.7803L522.644 18.1387C523.708 18.0322 524.239 17.5803 524.239 16.7822ZM48.2676 25.4414C48.2676 23.2601 48.1073 21.4511 47.7881 20.0146C47.4689 18.5515 47.0034 17.4739 46.3916 16.7822C45.8794 16.1537 45.337 15.7081 44.7637 15.4463L44.5166 15.3457C43.958 15.113 43.2974 14.9822 42.5352 14.9531L42.2021 14.9463C41.2447 14.9463 40.4066 15.1326 39.6885 15.5049L39.4248 15.6504C38.8257 15.9994 38.3282 16.4296 37.9326 16.9414C37.5071 17.5266 37.1346 18.2984 36.8154 19.2559C36.5228 20.1869 36.3098 21.0919 36.1768 21.9697L36.0791 22.6426C35.9843 23.3509 35.8972 24.1641 35.8174 25.082C35.2056 25.2948 34.5136 25.4014 33.7422 25.4014V24.584C34.2263 24.584 34.6629 24.5361 35.0557 24.4482C35.15 23.4533 35.2538 22.5854 35.3691 21.8467C35.509 20.9236 35.7312 19.9778 36.0352 19.0107L36.04 18.998C36.3761 17.9898 36.7814 17.1348 37.2715 16.4609L37.2783 16.4512L37.2861 16.4424C37.8175 15.7547 38.498 15.2022 39.3115 14.7803C40.1656 14.3374 41.1375 14.1299 42.2021 14.1299C43.1828 14.1299 44.0675 14.2737 44.8311 14.5918C45.6572 14.8986 46.3845 15.4792 47.0254 16.2656C47.7582 17.1065 48.2567 18.3299 48.5859 19.8379C48.9226 21.3531 49.084 23.2264 49.084 25.4414C49.084 26.374 48.939 27.4239 48.6631 28.583L48.6621 28.5879C48.3824 29.7347 47.9652 30.9137 47.415 32.124C46.829 33.4132 45.9761 34.5013 44.8633 35.3799C43.7095 36.2907 42.3872 36.7529 40.9248 36.7529C39.1717 36.7529 37.6655 36.2671 36.4785 35.2363L36.4697 35.2285L36.4619 35.2207C35.2684 34.1239 34.7207 32.5906 34.7207 30.748C34.7207 30.1378 34.7269 29.6092 34.7373 29.1641L31.0342 28.5605L31.208 35.0361L31.2109 35.1709L31.1709 35.2998C31.0197 35.787 30.7731 36.2319 30.3838 36.5547C29.9836 36.8863 29.5013 37.0322 28.9941 37.0322C28.298 37.0322 27.6746 36.7404 27.1387 36.2715C26.5839 35.786 26.2214 35.1762 26.0781 34.46L26.0576 34.3613L26.9463 15.7109L30.2539 16.3877L30.2891 17.0166C30.4935 20.7143 30.6236 23.1807 30.6855 24.3877C31.0648 24.3961 31.5779 24.437 32.21 24.5068C32.9228 24.5596 33.4286 24.584 33.7422 24.584V25.4014L33.4482 25.3965C33.3385 25.3932 33.217 25.3885 33.084 25.3818L32.1465 25.3213C31.4282 25.2415 30.8956 25.2021 30.5498 25.2021C30.2577 25.2022 30.0451 25.2147 29.9121 25.2412C29.9118 25.0766 29.765 22.35 29.4727 17.0615L27.7168 16.7021L26.8789 34.2998C26.9853 34.8317 27.2513 35.2839 27.6768 35.6562C28.0492 35.9822 28.4324 36.1653 28.8252 36.2061L28.9941 36.2148C29.6857 36.2148 30.1512 35.829 30.3906 35.0576L30.1914 27.5957L35.5781 28.4736C35.5515 29.0056 35.5381 29.7639 35.5381 30.748C35.5381 32.424 36.0304 33.7147 37.0146 34.6191C38.0255 35.4969 39.3289 35.9355 40.9248 35.9355C42.2017 35.9355 43.3456 35.5363 44.3564 34.7383C45.241 34.04 45.9421 33.1993 46.46 32.2158L46.6709 31.7861C47.1365 30.7618 47.5008 29.7679 47.7627 28.8047L47.8682 28.3945C48.1009 27.4169 48.2317 26.5406 48.2607 25.7666L48.2676 25.4414ZM139.985 32.5439C139.985 31.8556 140.126 31.2091 140.49 30.6826L140.497 30.6719C140.914 30.0881 141.52 29.7715 142.239 29.7715C143.244 29.7715 144.072 30.2371 144.686 31.0527C145.298 31.8061 145.61 32.6857 145.61 33.6611C145.61 34.3822 145.427 35.0483 145.001 35.5947L145.002 35.5957C144.565 36.1641 143.94 36.4336 143.236 36.4336C142.226 36.4335 141.387 35.9994 140.784 35.1846L140.771 35.165C140.24 34.4018 139.985 33.5169 139.985 32.5439ZM373.515 32.5439C373.515 31.8557 373.654 31.209 374.019 30.6826L374.025 30.6719C374.443 30.088 375.048 29.7716 375.768 29.7715C376.774 29.7715 377.604 30.2378 378.218 31.0557C378.829 31.8084 379.139 32.6869 379.139 33.6611C379.139 34.3853 378.956 35.0548 378.525 35.6025L378.524 35.6016C378.087 36.1656 377.467 36.4336 376.766 36.4336C375.755 36.4336 374.915 35.9996 374.312 35.1846L374.299 35.165C373.768 34.4018 373.515 33.5167 373.515 32.5439ZM573.589 32.5439C573.589 31.8557 573.729 31.209 574.093 30.6826L574.1 30.6719C574.517 30.0879 575.123 29.7715 575.843 29.7715C576.849 29.7716 577.679 30.2379 578.292 31.0557C578.903 31.8084 579.213 32.6869 579.213 33.6611C579.213 34.3852 579.03 35.0548 578.6 35.6025L578.599 35.6016C578.162 36.1656 577.541 36.4336 576.84 36.4336C575.829 36.4336 574.989 35.9996 574.387 35.1846L574.373 35.165C573.842 34.4018 573.589 33.5167 573.589 32.5439ZM484.161 15.4258L483.882 23.8447L483.731 29.3223C483.685 30.898 483.642 32.2246 483.603 33.3018C483.709 33.8604 483.975 34.3393 484.4 34.7383C484.853 35.1107 485.318 35.2969 485.797 35.2969C486.445 35.2969 486.895 34.9347 487.146 34.21L487.193 34.0605C487.153 33.5017 487.129 33.025 487.119 32.6309L487.113 32.2646C488.683 29.4981 491.742 25.5212 496.291 20.334C496.211 21.7705 496.106 24.2045 495.973 27.6357L495.772 34.0605C495.879 34.6191 496.145 35.0981 496.57 35.4971C496.966 35.8229 497.372 36.0061 497.788 36.0469L497.968 36.0557C498.616 36.0555 499.066 35.7044 499.316 35.0029L499.364 34.8584L498.605 18.418C498.552 17.1678 498.42 16.3165 498.207 15.8643C498.044 15.4687 497.759 15.2458 497.352 15.1963L497.169 15.1865C497.009 15.1866 496.637 15.2394 496.052 15.3457C495.2 16.8886 493.591 19.2301 491.224 22.3691L489.623 24.498C488.196 26.4036 487.293 27.6356 486.914 28.1943C486.781 26.811 486.675 24.7093 486.595 21.8896C486.515 19.07 486.315 16.8089 485.996 15.1064L484.161 15.4258ZM530.521 15.4258L530.241 23.8447L530.092 29.3223C530.045 30.8981 530.002 32.2245 529.962 33.3018C530.068 33.8603 530.334 34.3393 530.76 34.7383C531.212 35.1107 531.677 35.2968 532.156 35.2969C532.805 35.2969 533.255 34.9349 533.506 34.21L533.553 34.0605C533.513 33.5017 533.488 33.025 533.479 32.6309L533.474 32.2646C535.043 29.498 538.103 25.5213 542.651 20.334C542.572 21.7705 542.465 24.2044 542.332 27.6357L542.132 34.0605C542.238 34.6191 542.505 35.0981 542.931 35.4971C543.326 35.8226 543.732 36.0061 544.147 36.0469L544.327 36.0557C544.975 36.0555 545.425 35.7044 545.676 35.0029L545.724 34.8584L544.965 18.418C544.912 17.1678 544.779 16.3165 544.566 15.8643C544.403 15.4686 544.118 15.2458 543.711 15.1963L543.528 15.1865C543.368 15.1866 542.996 15.2394 542.411 15.3457C541.56 16.8886 539.951 19.2302 537.583 22.3691L535.982 24.498C534.556 26.4036 533.653 27.6356 533.273 28.1943C533.14 26.811 533.034 24.7093 532.954 21.8896C532.874 19.07 532.675 16.8089 532.355 15.1064L530.521 15.4258ZM66.7793 23.167C66.7793 21.306 66.3496 20.0845 65.6455 19.3389L65.6377 19.3301C64.9096 18.5378 63.9298 18.1182 62.6084 18.1182C61.4822 18.1182 60.5775 18.5864 59.8408 19.6133L59.8359 19.6201C59.0772 20.6548 58.6768 21.9407 58.6768 23.5254C58.6768 24.5188 58.7537 25.5832 58.9082 26.7188C59.0886 27.8503 59.3461 28.9971 59.6816 30.1592C60.0248 31.2312 60.4904 32.0895 61.0625 32.7568L61.2764 32.9785C61.7758 33.4538 62.2695 33.6425 62.7676 33.6426V34.459C61.9697 34.4589 61.2417 34.1203 60.584 33.4424L60.4541 33.3018C59.7891 32.5304 59.2699 31.56 58.8975 30.3896C58.5516 29.1926 58.2858 28.0083 58.0996 26.8379C57.9799 25.96 57.9049 25.1195 57.875 24.3164L57.8604 23.5254C57.8604 21.9045 58.2461 20.5176 59.0176 19.3643L59.1768 19.1367C60.0546 17.913 61.1985 17.3008 62.6084 17.3008C64.1246 17.3008 65.3348 17.7932 66.2393 18.7773C67.1437 19.735 67.5967 21.1984 67.5967 23.167L67.5918 23.8613C67.4944 30.9267 65.8859 34.459 62.7676 34.459V33.6426C63.4002 33.6426 63.9258 33.4618 64.3779 33.1094C64.8419 32.7477 65.272 32.1697 65.6377 31.3145C66.3764 29.5866 66.7793 26.8975 66.7793 23.167ZM326.001 12.5732C326.706 12.5733 327.556 12.7465 328.521 13.0498L329.164 13.252L329.087 13.9219L328.83 16.1738L327.981 16.0322C327.888 16.0167 327.715 16.0029 327.438 16.0029C326.76 16.0029 326.18 16.2225 325.663 16.6777L325.656 16.6836L325.648 16.6895C325.077 17.1696 324.598 17.783 324.218 18.5439C323.829 19.3736 323.467 20.2167 323.13 21.0723L323.127 21.0801C322.763 21.9769 322.323 22.7866 321.808 23.5059C321.645 23.7449 321.467 23.9619 321.275 24.1562C321.853 24.5793 322.354 25.1529 322.785 25.8486C323.534 26.9897 324.096 28.1794 324.464 29.418L324.601 29.8135C324.936 30.7241 325.383 31.566 325.943 32.3418C326.506 33.0959 327.127 33.4023 327.837 33.4023V34.2197L327.648 34.2148C326.72 34.1602 325.931 33.696 325.282 32.8232C324.591 31.8656 324.059 30.8147 323.687 29.6709C323.384 28.6468 322.938 27.6535 322.351 26.6904L322.091 26.2793C321.399 25.162 320.56 24.4836 319.576 24.2441C320.161 24.1111 320.681 23.7119 321.133 23.0469C321.552 22.4651 321.92 21.8122 322.237 21.0879L322.37 20.7725C322.716 19.8947 323.088 19.0299 323.487 18.1787C323.86 17.434 324.323 16.801 324.879 16.2803L325.123 16.0645C325.788 15.4792 326.56 15.1865 327.438 15.1865L327.826 15.1963C327.939 15.2029 328.036 15.2123 328.116 15.2256L328.275 13.8291C327.461 13.5731 326.778 13.4295 326.229 13.3975L326.001 13.3906C325.07 13.3906 324.258 13.6833 323.566 14.2686C322.902 14.8537 322.356 15.5718 321.931 16.4229C321.505 17.2741 321.092 18.1387 320.693 19.0166C320.321 19.8677 319.83 20.6395 319.218 21.3311C318.633 22.0227 317.941 22.4353 317.143 22.5684C317.116 22.0629 317.089 20.8653 317.062 18.9766C317.062 17.3238 316.981 15.997 316.818 14.9961L316.743 14.5879L314.947 13.9092C314.708 15.6117 314.589 18.4983 314.589 22.5684C313.871 22.4087 313.231 21.9827 312.673 21.291C312.114 20.5729 311.635 19.7876 311.236 18.9365C310.957 18.2783 310.663 17.6351 310.354 17.0068L310.04 16.3828C309.691 15.638 309.229 15.0052 308.656 14.4844L308.403 14.2686C307.798 13.7566 307.102 13.4684 306.313 13.4043L305.97 13.3906C305.225 13.3906 304.453 13.5365 303.655 13.8291L303.814 15.2256C303.974 15.199 304.201 15.1865 304.493 15.1865L304.817 15.2002C305.562 15.2642 306.226 15.5524 306.808 16.0645C307.472 16.623 308.004 17.3277 308.403 18.1787C308.829 19.0299 309.215 19.8946 309.561 20.7725C309.906 21.6237 310.306 22.3819 310.758 23.0469C311.237 23.7119 311.769 24.1111 312.354 24.2441C311.53 24.4304 310.811 24.9092 310.199 25.6807C309.614 26.4521 309.135 27.3033 308.763 28.2344C308.417 29.1653 308.058 30.0964 307.686 31.0273C307.313 31.9317 306.834 32.69 306.249 33.3018L306.023 33.5176C305.485 33.9858 304.855 34.2197 304.134 34.2197V33.4023C304.729 33.4023 305.222 33.1928 305.658 32.7373C306.163 32.2096 306.59 31.5415 306.93 30.7168C307.299 29.7945 307.655 28.8723 307.997 27.9502L308 27.9404L308.004 27.9307C308.403 26.9341 308.917 26.0183 309.548 25.1865L309.554 25.1797L309.559 25.1729C309.88 24.7678 310.235 24.4231 310.624 24.1455C310.436 23.9589 310.259 23.7519 310.095 23.5244L310.088 23.5156L310.082 23.5068C309.593 22.788 309.168 21.9773 308.804 21.0801L308.801 21.0723C308.464 20.217 308.088 19.3739 307.673 18.5439L307.668 18.5352L307.664 18.5254C307.311 17.7726 306.849 17.1656 306.282 16.6895L306.274 16.6836L306.268 16.6777C305.75 16.2225 305.17 16.0029 304.493 16.0029C304.216 16.0029 304.042 16.0167 303.949 16.0322L303.101 16.1738L302.843 13.9219L302.771 13.2832L303.374 13.0625C304.25 12.7415 305.116 12.5732 305.97 12.5732C307.088 12.5733 308.088 12.9308 308.932 13.6445C309.711 14.2774 310.321 15.0698 310.766 16.0088L311.087 16.6455C311.4 17.281 311.697 17.9311 311.979 18.5957C312.351 19.3867 312.794 20.1135 313.309 20.7773C313.462 20.967 313.619 21.1255 313.776 21.2588C313.8 17.8621 313.918 15.3654 314.139 13.7959L314.281 12.7832L317.453 13.9824L317.544 14.4238C317.773 15.5395 317.879 17.063 317.88 18.9658L317.92 21.2734C317.921 21.3174 317.922 21.3603 317.923 21.4023C318.156 21.2507 318.381 21.0552 318.594 20.8037L318.605 20.79C319.161 20.1626 319.607 19.4632 319.945 18.6895L319.95 18.6787C320.353 17.7918 320.77 16.918 321.2 16.0576C321.669 15.1193 322.278 14.3151 323.027 13.6553L323.033 13.6494L323.039 13.6445C323.883 12.9308 324.882 12.5732 326.001 12.5732ZM293.604 24.0449C293.604 21.8504 293.229 20.348 292.598 19.415C292.005 18.5392 291.129 18.0782 289.833 18.0781C288.931 18.0781 288.103 18.212 287.345 18.4727L287.338 18.4756L287.33 18.4775C286.736 18.6693 286.507 18.8707 286.421 18.9951L286.538 31.4941C286.779 31.9086 287.125 32.2616 287.602 32.5508C288.138 32.8505 288.73 33.0039 289.394 33.0039V33.8213L289.098 33.8125C288.511 33.7776 287.963 33.638 287.451 33.3936L287.199 33.2627C286.534 32.8637 286.042 32.3445 285.723 31.7061L285.603 18.8174C285.742 18.3983 286.137 18.0608 286.786 17.8047L287.079 17.7002C287.93 17.4076 288.849 17.2607 289.833 17.2607L290.115 17.2676C292.986 17.4046 294.422 19.664 294.422 24.0449L294.409 24.833C294.384 25.611 294.321 26.359 294.222 27.0771C294.115 28.0347 293.903 29.0723 293.584 30.1895C293.291 31.2801 292.772 32.1582 292.027 32.8232C291.309 33.4883 290.431 33.8213 289.394 33.8213V33.0039C290.239 33.0039 290.914 32.7397 291.472 32.2236L291.483 32.2139C292.094 31.6682 292.537 30.9353 292.794 29.9775L292.798 29.9648C293.107 28.8831 293.31 27.8913 293.41 26.9873L293.411 26.9756L293.413 26.9648C293.54 26.048 293.604 25.075 293.604 24.0449ZM411.414 24.0449C411.414 21.8503 411.038 20.3479 410.407 19.415C409.815 18.5391 408.939 18.0781 407.643 18.0781C406.74 18.0781 405.913 18.2121 405.155 18.4727L405.147 18.4756L405.141 18.4775C404.547 18.6689 404.318 18.8696 404.231 18.9941L404.348 31.4941C404.589 31.9094 404.937 32.2623 405.414 32.5518C405.95 32.8506 406.541 33.0039 407.204 33.0039V33.8213L406.907 33.8125C406.321 33.7776 405.773 33.6378 405.262 33.3936L405.009 33.2627C404.344 32.8637 403.851 32.3445 403.532 31.7061L403.413 18.8174C403.553 18.3984 403.947 18.0607 404.596 17.8047L404.89 17.7002C405.741 17.4076 406.658 17.2607 407.643 17.2607C410.702 17.2607 412.231 19.5226 412.231 24.0449L412.219 24.833C412.194 25.611 412.132 26.359 412.032 27.0771L411.987 27.4404C411.871 28.2957 411.673 29.212 411.394 30.1895C411.101 31.2801 410.582 32.1582 409.837 32.8232C409.119 33.4881 408.241 33.8212 407.204 33.8213V33.0039C408.049 33.0038 408.725 32.7398 409.282 32.2236L409.287 32.2188L409.293 32.2139C409.904 31.6682 410.348 30.9353 410.604 29.9775L410.607 29.9648C410.916 28.8831 411.119 27.8913 411.22 26.9873L411.221 26.9756L411.223 26.9648C411.35 26.048 411.414 25.075 411.414 24.0449ZM110.824 28.5137C110.824 27.7922 110.552 27.107 109.927 26.4375L109.918 26.4277C109.333 25.7804 108.612 25.4601 107.691 25.46C107.138 25.46 105.669 25.5881 103.233 25.8525L103.536 32.6621C103.973 32.8068 104.464 32.8838 105.018 32.8838V33.7012L104.702 33.6934C103.978 33.6584 103.325 33.5018 102.743 33.2227L102.384 25.1221C105.257 24.8028 107.026 24.6436 107.691 24.6436L107.903 24.6484C108.952 24.6968 109.826 25.1068 110.524 25.8799C111.269 26.6779 111.642 27.556 111.642 28.5137L111.633 28.7715C111.552 30.0478 110.863 31.172 109.566 32.1445L109.306 32.333C107.993 33.245 106.564 33.7011 105.018 33.7012V32.8838C106.481 32.8838 107.827 32.4281 109.076 31.4912C110.311 30.5653 110.824 29.5759 110.824 28.5137ZM131.351 29.2324C131.351 28.7626 131.255 28.3371 131.07 27.9463L131.066 27.9385L131.063 27.9316C130.878 27.5203 130.598 27.1523 130.208 26.8271C129.825 26.5077 129.34 26.2485 128.735 26.0625L128.722 26.0586L128.708 26.0537C128.118 25.8493 127.426 25.7393 126.621 25.7393C126.377 25.7393 126.1 25.7615 125.787 25.8096L125.757 25.8145L125.726 25.8174C125.588 25.828 125.443 25.8413 125.291 25.8564L124.991 32.5518C125.767 32.7745 126.495 32.8838 127.18 32.8838V33.7012L126.818 33.6924C125.969 33.6517 125.079 33.4684 124.147 33.1426L124.506 25.1221C124.931 25.0689 125.317 25.0286 125.663 25.002C126.009 24.9487 126.328 24.9229 126.621 24.9229L126.946 24.9277C127.694 24.954 128.371 25.0718 128.976 25.2812C129.667 25.4941 130.253 25.8002 130.731 26.1992C131.21 26.5982 131.569 27.0638 131.809 27.5957C132.048 28.1011 132.168 28.6472 132.168 29.2324L132.162 29.4502C132.136 29.9565 132.018 30.4427 131.809 30.9082L131.714 31.1045C131.484 31.5585 131.183 31.9722 130.811 32.3447L130.646 32.4912C130.251 32.8258 129.773 33.109 129.215 33.3418L128.982 33.4258C128.432 33.6092 127.832 33.7012 127.18 33.7012V32.8838C127.835 32.8838 128.41 32.779 128.914 32.582C129.469 32.3492 129.907 32.0692 130.246 31.7529C130.597 31.3986 130.868 31.0057 131.063 30.5723C131.255 30.1462 131.351 29.7021 131.351 29.2324ZM472.873 28.5137C472.873 27.7922 472.6 27.107 471.976 26.4375L471.967 26.4277C471.382 25.7803 470.661 25.46 469.74 25.46C469.187 25.46 467.718 25.5881 465.282 25.8525L465.585 32.6621C466.022 32.8069 466.513 32.8838 467.066 32.8838V33.7012L466.752 33.6934C466.027 33.6585 465.374 33.502 464.792 33.2227L464.433 25.1221C467.306 24.8028 469.075 24.6436 469.74 24.6436L469.952 24.6484C471.001 24.6968 471.875 25.1068 472.573 25.8799C473.318 26.6779 473.69 27.556 473.69 28.5137L473.683 28.7715C473.601 30.0479 472.912 31.172 471.615 32.1445C470.232 33.182 468.716 33.7012 467.066 33.7012V32.8838C468.53 32.8838 469.876 32.4281 471.125 31.4912C472.36 30.5653 472.873 29.5759 472.873 28.5137ZM88.4629 24.9229C88.4629 22.8683 88.0001 21.1174 87.1045 19.6406C86.2595 18.2476 85.1351 17.4915 83.6982 17.2891C83.2603 17.3865 82.6784 17.8686 82.0977 19.3203C81.4822 20.859 81.0897 22.3469 80.9131 23.7852V23.7871C80.7299 25.2528 80.6397 26.5344 80.6396 27.6357C80.6396 28.9457 81.034 30.1637 81.8438 31.3086C82.678 32.4243 83.4955 32.8438 84.292 32.8438V33.6611L84.0781 33.6543C83.089 33.5858 82.1817 33.0382 81.3555 32.0127L81.1797 31.7861C80.2752 30.5092 79.8223 29.1255 79.8223 27.6357C79.8223 26.7779 79.8748 25.8228 79.9795 24.7705L80.1016 23.6855C80.2878 22.1692 80.7004 20.6127 81.3389 19.0166C81.9773 17.4206 82.7623 16.5693 83.6934 16.4629C85.449 16.6757 86.8195 17.5941 87.8037 19.2168C88.7878 20.8394 89.2793 22.7417 89.2793 24.9229L89.2744 25.207C89.2511 25.882 89.1462 26.6387 88.96 27.4766L88.8857 27.835C88.6995 28.6731 88.4322 29.5115 88.083 30.3496C87.7106 31.2805 87.1913 32.0647 86.5264 32.7031L86.2734 32.9277C85.674 33.4167 85.0136 33.6611 84.292 33.6611V32.8438C84.8799 32.8437 85.4278 32.625 85.96 32.1143C86.534 31.5632 86.9911 30.8786 87.3242 30.0459L87.3281 30.0352C87.7072 29.1253 87.9832 28.2204 88.1582 27.3203L88.1602 27.3096L88.1631 27.2988C88.3667 26.3825 88.4629 25.5926 88.4629 24.9229ZM200.327 24.9229C200.327 22.8683 199.864 21.1174 198.969 19.6406C198.124 18.2475 196.999 17.4915 195.562 17.2891C195.125 17.3865 194.543 17.8687 193.962 19.3203C193.346 20.859 192.954 22.3469 192.777 23.7852V23.7871C192.594 25.2528 192.504 26.5344 192.504 27.6357C192.504 28.9457 192.898 30.1637 193.708 31.3086C194.542 32.4243 195.36 32.8438 196.156 32.8438V33.6611L195.943 33.6543C194.954 33.5861 194.046 33.0385 193.22 32.0127L193.044 31.7861C192.196 30.5891 191.745 29.2982 191.692 27.9141L191.688 27.6357C191.688 26.7779 191.739 25.8228 191.844 24.7705L191.967 23.6855C192.153 22.1692 192.565 20.6127 193.203 19.0166C193.842 17.4205 194.627 16.5693 195.558 16.4629C197.313 16.6757 198.684 17.5941 199.668 19.2168C200.652 20.8394 201.145 22.7417 201.145 24.9229L201.139 25.207C201.115 25.882 201.011 26.6387 200.825 27.4766L200.75 27.835C200.564 28.6731 200.296 29.5115 199.947 30.3496C199.575 31.2805 199.056 32.0647 198.391 32.7031C197.726 33.3416 196.981 33.6611 196.156 33.6611V32.8438C196.744 32.8437 197.293 32.6253 197.825 32.1143C198.399 31.5632 198.855 30.8785 199.188 30.0459L199.192 30.0352C199.571 29.1253 199.847 28.2204 200.022 27.3203L200.024 27.3096L200.027 27.2988C200.231 26.3825 200.327 25.5926 200.327 24.9229ZM363.722 26.5986C363.722 25.9705 363.702 25.1347 363.668 24.0889C362.18 24.2149 360.793 24.8287 359.493 25.9746C358.116 27.2111 357.456 28.669 357.456 30.3896C357.456 31.0627 357.648 31.5151 357.967 31.8379C358.343 32.1921 358.776 32.3651 359.312 32.3652V33.1826L359.038 33.1709C358.409 33.1157 357.862 32.8662 357.396 32.4238C356.954 31.9816 356.706 31.4071 356.65 30.7002L356.639 30.3896C356.639 28.4211 357.41 26.7446 358.953 25.3613C360.523 23.9781 362.252 23.2727 364.141 23.2461H364.46C364.513 24.6826 364.539 25.8006 364.539 26.5986L364.534 27.4014C364.524 28.2892 364.5 29.4315 364.46 30.8281C362.199 32.3976 360.482 33.1826 359.312 33.1826V32.3652C359.729 32.3652 360.328 32.2206 361.137 31.8506C361.852 31.5233 362.69 31.0393 363.652 30.3896C363.698 28.735 363.722 27.4726 363.722 26.5986ZM431.581 26.5986C431.581 25.9705 431.561 25.1347 431.527 24.0889C430.039 24.2149 428.653 24.8287 427.353 25.9746C425.976 27.2112 425.315 28.6689 425.315 30.3896C425.316 31.0651 425.509 31.5188 425.829 31.8418C426.204 32.1938 426.637 32.3652 427.171 32.3652V33.1826L426.896 33.1709C426.268 33.1156 425.721 32.866 425.256 32.4238C424.814 31.9816 424.565 31.4072 424.51 30.7002L424.498 30.3896C424.498 28.4211 425.27 26.7446 426.812 25.3613C428.382 23.9783 430.111 23.2728 431.999 23.2461H432.318C432.372 24.6826 432.398 25.8006 432.398 26.5986L432.394 27.4014C432.384 28.2892 432.358 29.4315 432.318 30.8281C430.057 32.3975 428.341 33.1826 427.171 33.1826V32.3652C427.589 32.3652 428.187 32.2206 428.996 31.8506C429.712 31.5233 430.549 31.0393 431.512 30.3896C431.557 28.735 431.581 27.4726 431.581 26.5986ZM44.7764 22.7676C44.7764 22.29 44.7285 21.7807 44.6299 21.2383L44.627 21.2197L44.624 21.2021C44.5536 20.6857 44.4117 20.1329 44.1904 19.543L44.1846 19.5293L44.1797 19.5146C44.007 18.9968 43.749 18.6054 43.417 18.3125L43.3975 18.2959L43.3799 18.2783C43.1103 18.0088 42.8005 17.8789 42.4014 17.8789C41.9134 17.8789 41.4729 18.0669 41.0498 18.5303C40.5883 19.0358 40.2156 19.7069 39.9512 20.5723L39.9492 20.5791C39.6697 21.4685 39.453 22.3701 39.2998 23.2842C39.1721 24.1789 39.1084 25.044 39.1084 25.8799C39.1084 27.8314 39.2151 29.269 39.4111 30.2246C39.6162 31.2241 39.866 31.6892 40.0361 31.8555C40.2169 32.0031 40.5201 32.126 41.0449 32.126V32.9434L40.8018 32.9355C40.2521 32.9006 39.8141 32.7431 39.4883 32.4639C39.1625 32.1612 38.898 31.5938 38.6943 30.7617L38.6104 30.3896C38.3975 29.3522 38.291 27.8484 38.291 25.8799C38.291 25.0022 38.3582 24.0979 38.4912 23.167C38.6109 22.4487 38.7674 21.7375 38.9619 21.0342L39.1689 20.334C39.425 19.4959 39.7834 18.79 40.2432 18.2168L40.4463 17.9795C41.0049 17.3677 41.6566 17.0616 42.4014 17.0615C43.0132 17.0615 43.5324 17.2746 43.958 17.7002C44.41 18.0991 44.7423 18.6177 44.9551 19.2559C45.1945 19.8943 45.3548 20.5066 45.4346 21.0918C45.541 21.677 45.5937 22.2356 45.5938 22.7676L45.5859 23.2803C45.551 24.4848 45.3945 25.7505 45.1152 27.0771L44.9854 27.6299C44.6624 28.9042 44.187 30.0768 43.5586 31.1475L43.4229 31.3652C42.7355 32.4172 41.9426 32.9433 41.0449 32.9434V32.126C41.5952 32.1259 42.2106 31.8019 42.8535 30.7334C43.4405 29.7333 43.8881 28.6331 44.1934 27.4287L44.3154 26.9062C44.6242 25.4386 44.7764 24.0596 44.7764 22.7676ZM217.72 16.9023C218.571 16.9821 219.781 17.0484 221.351 17.1016C222.947 17.1548 223.931 17.1941 224.304 17.2207L223.506 32.9434H214.767C215.245 32.2783 215.658 31.4933 216.004 30.5889C216.283 29.8907 216.51 29.2373 216.685 28.6289L216.842 28.0352C217.028 27.2371 217.175 26.2525 217.281 25.082C217.414 23.8851 217.494 22.9541 217.521 22.2891C217.56 21.7903 217.592 21.1268 217.617 20.2988L217.64 19.416C217.666 18.1395 217.693 17.3015 217.72 16.9023ZM243.354 16.9023C244.205 16.9821 245.415 17.0484 246.984 17.1016C248.58 17.1548 249.565 17.1941 249.938 17.2207L249.14 32.9434H240.4C240.879 32.2783 241.292 31.4933 241.638 30.5889C241.917 29.8907 242.144 29.2373 242.318 28.6289L242.476 28.0352C242.662 27.2371 242.809 26.2525 242.915 25.082C243.048 23.8851 243.128 22.9541 243.154 22.2891C243.194 21.7903 243.226 21.1268 243.251 20.2988L243.273 19.416C243.3 18.1395 243.327 17.3015 243.354 16.9023ZM274.813 19.6553C274.813 18.1922 274.267 17.008 273.177 16.1035C272.154 15.2308 270.98 14.7674 269.653 14.7129L269.387 14.707C263.375 14.707 260.368 18.0324 260.368 24.6826C260.368 25.7998 260.461 26.9439 260.647 28.1143C260.86 29.2581 261.18 30.4289 261.605 31.626C262.031 32.7964 262.669 33.7676 263.521 34.5391C264.319 35.2374 265.245 35.6087 266.301 35.6523L266.514 35.6562C267.491 35.6562 268.917 35.463 270.79 35.0762L271.621 34.8984C273.646 34.4329 275.234 34.0081 276.383 33.624L276.849 33.4619L276.449 31.7061C276.396 31.7061 275.824 31.7991 274.733 31.9854C273.669 32.1716 272.446 32.3577 271.062 32.5439C269.679 32.7036 268.508 32.7832 267.551 32.7832V31.9658C268.465 31.9658 269.6 31.8894 270.962 31.7324C272.334 31.5476 273.544 31.3642 274.593 31.1807L274.596 31.1797C275.141 31.0865 275.559 31.0158 275.849 30.9688C275.993 30.9453 276.108 30.9275 276.191 30.915C276.233 30.9089 276.271 30.9034 276.302 30.8994C276.311 30.8983 276.381 30.8887 276.449 30.8887H277.102L277.646 33.2803L277.805 33.9834L277.128 34.2295C275.909 34.6726 274.127 35.1602 271.804 35.6943L271.797 35.6963C269.5 36.2037 267.725 36.4736 266.514 36.4736C265.174 36.4736 263.984 36.0311 262.982 35.1543L262.978 35.1494L262.972 35.1445C262.014 34.2764 261.304 33.1899 260.837 31.9053L260.835 31.9004C260.396 30.6666 260.065 29.4543 259.844 28.2646L259.842 28.2539L259.841 28.2432C259.648 27.0327 259.551 25.8454 259.551 24.6826C259.551 21.2509 260.325 18.5246 262.017 16.6533C263.722 14.7663 266.232 13.8896 269.387 13.8896C271.013 13.8897 272.461 14.4223 273.698 15.4746C274.983 16.5401 275.631 17.9581 275.631 19.6553C275.631 20.6191 275.353 21.4962 274.792 22.2559L274.791 22.2549C274.3 22.9548 273.686 23.5232 272.95 23.9521L272.94 23.958C272.258 24.3436 271.399 24.682 270.383 24.9844L270.384 24.9854C269.404 25.2847 268.52 25.5072 267.734 25.6475C266.981 25.782 266.083 25.9286 265.041 26.0889C264.46 26.1783 263.984 26.2554 263.611 26.3184C263.634 26.785 263.661 27.2081 263.695 27.5879C263.769 28.1191 263.891 28.7065 264.063 29.3516C264.252 29.9373 264.476 30.4043 264.728 30.7676C264.987 31.0809 265.349 31.367 265.842 31.6133C266.291 31.838 266.852 31.9658 267.551 31.9658V32.7832C266.852 32.7832 266.236 32.6713 265.7 32.4473L265.476 32.3447C264.89 32.0521 264.425 31.6922 264.079 31.2666C263.76 30.8144 263.494 30.2557 263.281 29.5908C263.095 28.8993 262.962 28.261 262.882 27.6758C262.829 27.0905 262.789 26.4121 262.763 25.6406C263.162 25.5608 263.88 25.4408 264.917 25.2812C265.436 25.2015 265.918 25.1249 266.363 25.0518L267.591 24.8428C268.336 24.7098 269.187 24.4967 270.145 24.2041C271.006 23.948 271.725 23.6718 272.301 23.375L272.539 23.2461C273.177 22.8738 273.709 22.3821 274.135 21.7705C274.53 21.2351 274.753 20.6281 274.803 19.9502L274.813 19.6553ZM567.526 19.6553C567.526 18.2836 567.047 17.157 566.089 16.2764L565.891 16.1035C564.8 15.1725 563.536 14.707 562.1 14.707C556.088 14.707 553.081 18.0324 553.081 24.6826C553.081 25.7997 553.174 26.9439 553.36 28.1143C553.573 29.2581 553.893 30.429 554.318 31.626C554.744 32.7963 555.382 33.7676 556.233 34.5391C557.085 35.2839 558.083 35.6562 559.227 35.6562C560.204 35.6562 561.63 35.4632 563.504 35.0762L564.334 34.8984C566.359 34.4329 567.946 34.0081 569.096 33.624L569.562 33.4619L569.162 31.7061C569.107 31.7064 568.535 31.7995 567.446 31.9854C566.382 32.1715 565.159 32.3577 563.775 32.5439C562.392 32.7035 561.221 32.7832 560.264 32.7832V31.9658C561.179 31.9658 562.315 31.8897 563.679 31.7324C565.049 31.5478 566.258 31.364 567.306 31.1807L567.31 31.1797C567.855 31.0865 568.273 31.0158 568.562 30.9688C568.707 30.9453 568.822 30.9275 568.905 30.915C568.946 30.9089 568.984 30.9034 569.015 30.8994C569.023 30.8983 569.093 30.8887 569.162 30.8887H569.814L570.519 33.9834L569.841 34.2295C568.622 34.6726 566.841 35.1603 564.518 35.6943L564.511 35.6963C562.214 36.2038 560.438 36.4736 559.227 36.4736C557.887 36.4736 556.697 36.0311 555.695 35.1543L555.686 35.1445C554.728 34.2764 554.018 33.19 553.551 31.9053L553.549 31.9004C553.11 30.6666 552.779 29.4543 552.558 28.2646L552.554 28.2432C552.361 27.0327 552.265 25.8454 552.265 24.6826C552.265 21.251 553.038 18.5245 554.729 16.6533C556.435 14.7663 558.945 13.8896 562.1 13.8896C563.726 13.8896 565.174 14.4224 566.411 15.4746C567.696 16.5401 568.344 17.9581 568.344 19.6553C568.344 20.6191 568.066 21.4962 567.505 22.2559L567.504 22.2549C567.013 22.9546 566.399 23.5232 565.664 23.9521L565.654 23.958C564.971 24.3444 564.11 24.6844 563.091 24.9873L563.09 24.9863C562.113 25.2847 561.231 25.5075 560.447 25.6475C559.694 25.7819 558.796 25.9287 557.755 26.0889C557.173 26.1784 556.697 26.2554 556.324 26.3184C556.347 26.7802 556.373 27.1993 556.407 27.5762C556.481 28.1105 556.602 28.7018 556.776 29.3516C556.965 29.9372 557.189 30.4043 557.44 30.7676C557.699 31.081 558.062 31.367 558.555 31.6133C559.004 31.838 559.565 31.9658 560.264 31.9658V32.7832C559.565 32.7832 558.948 32.6714 558.413 32.4473L558.189 32.3447C557.677 32.0887 557.257 31.7817 556.928 31.4238L556.793 31.2666C556.474 30.8144 556.207 30.2558 555.994 29.5908C555.808 28.8993 555.675 28.2609 555.596 27.6758C555.542 27.0905 555.502 26.4121 555.476 25.6406C555.675 25.6007 555.954 25.5511 556.313 25.4912L557.631 25.2812C558.15 25.2015 558.632 25.1249 559.077 25.0518L560.304 24.8428C561.049 24.7098 561.9 24.4967 562.857 24.2041C563.842 23.9115 564.64 23.5919 565.252 23.2461C565.89 22.8738 566.422 22.3821 566.848 21.7705C567.243 21.2352 567.466 20.6281 567.516 19.9502L567.526 19.6553ZM244.134 17.7822C244.12 18.2045 244.105 18.7536 244.091 19.4326C244.064 20.6875 244.024 21.6654 243.969 22.3545C243.94 23.0421 243.858 23.9786 243.728 25.1553C243.619 26.3487 243.469 27.3739 243.271 28.2207L243.271 28.2266C243.074 29.041 242.781 29.926 242.4 30.8799C242.233 31.3183 242.049 31.7341 241.849 32.126H248.362L249.079 17.9971C248.575 17.9758 247.869 17.9484 246.957 17.918C245.842 17.8802 244.9 17.8343 244.134 17.7822ZM218.5 17.7822C218.486 18.2045 218.471 18.7536 218.457 19.4326C218.43 20.6875 218.39 21.6654 218.335 22.3545C218.306 23.0421 218.224 23.9786 218.094 25.1553C217.985 26.3487 217.835 27.3739 217.638 28.2207L217.637 28.2266C217.44 29.0411 217.148 29.926 216.767 30.8799C216.599 31.3183 216.415 31.7341 216.215 32.126H222.729L223.445 17.9971C222.941 17.9758 222.236 17.9484 221.324 17.918C220.209 17.8802 219.266 17.8343 218.5 17.7822ZM269.857 17.3896C270.381 17.4332 270.783 17.6303 271.062 17.9795C271.382 18.3785 271.634 19.0169 271.82 19.8945C269.506 21.0384 266.54 22.1295 262.922 23.167C263.135 21.5443 263.893 20.1739 265.196 19.0566C266.526 17.9394 268.003 17.3809 269.626 17.3809L269.857 17.3896ZM562.571 17.3896C563.095 17.4333 563.496 17.6304 563.775 17.9795C564.095 18.3785 564.348 19.0167 564.534 19.8945C562.22 21.0384 559.253 22.1295 555.636 23.167C555.849 21.5443 556.607 20.1739 557.91 19.0566C559.24 17.9395 560.716 17.3809 562.339 17.3809L562.571 17.3896ZM107.779 16.3076C108.987 16.3544 109.716 16.7528 109.966 17.501C109.833 18.7511 109.579 19.7618 109.207 20.5332C108.861 21.3046 108.382 21.8497 107.771 22.1689C107.159 22.4615 106.6 22.6612 106.095 22.7676C105.589 22.8474 104.924 22.9011 104.1 22.9277L103.521 22.9502C102.983 22.9751 102.563 23.007 102.264 23.0469L101.984 16.9023C102.343 16.8824 102.935 16.8168 103.758 16.707L104.658 16.583C105.962 16.3968 106.919 16.3037 107.531 16.3037L107.779 16.3076ZM469.828 16.3076C471.036 16.3544 471.765 16.7528 472.015 17.501C471.882 18.7511 471.628 19.7618 471.256 20.5332C470.91 21.3046 470.431 21.8497 469.819 22.1689C469.208 22.4615 468.649 22.6612 468.144 22.7676C467.638 22.8474 466.973 22.9011 466.148 22.9277L465.57 22.9502C465.032 22.9751 464.613 23.007 464.313 23.0469L464.034 16.9023C464.393 16.8824 464.984 16.8167 465.807 16.707L466.707 16.583C468.01 16.3968 468.968 16.3037 469.58 16.3037L469.828 16.3076ZM107.531 17.1211C106.981 17.1211 106.072 17.2061 104.773 17.3916C103.989 17.5037 103.34 17.5864 102.836 17.6426L103.041 22.1572C103.344 22.1384 103.689 22.1227 104.073 22.1104C104.865 22.0848 105.483 22.0339 105.938 21.9639C106.357 21.8744 106.843 21.7042 107.401 21.4385C107.812 21.2212 108.176 20.8369 108.462 20.1992L108.466 20.1885L108.472 20.1777C108.77 19.5601 108.994 18.7189 109.126 17.627C108.976 17.3801 108.591 17.1211 107.531 17.1211ZM469.58 17.1211C469.03 17.1211 468.121 17.2062 466.823 17.3916C466.039 17.5037 465.39 17.5864 464.886 17.6426L465.091 22.1572C465.394 22.1384 465.738 22.1227 466.122 22.1104C466.914 22.0848 467.532 22.0338 467.987 21.9639C468.406 21.8744 468.892 21.7042 469.45 21.4385C469.861 21.2212 470.225 20.8369 470.511 20.1992L470.521 20.1777C470.819 19.5603 471.043 18.7194 471.175 17.6279C471.025 17.3809 470.641 17.1211 469.58 17.1211ZM269.626 18.1982C268.21 18.1982 266.917 18.6797 265.723 19.6826L265.722 19.6816C264.939 20.3541 264.389 21.1178 264.058 21.9785C266.738 21.1614 269.003 20.3138 270.862 19.4443C270.721 18.9759 270.568 18.6708 270.424 18.4902C270.298 18.3325 270.084 18.1983 269.626 18.1982ZM562.339 18.1982C560.923 18.1983 559.63 18.6796 558.436 19.6826L558.435 19.6816C557.652 20.3541 557.102 21.1178 556.771 21.9785C559.452 21.1613 561.718 20.3159 563.577 19.4463C563.436 18.9769 563.282 18.6711 563.138 18.4902C563.011 18.3325 562.797 18.1982 562.339 18.1982ZM140.812 32.8486C140.859 33.5468 141.069 34.164 141.441 34.6992C141.894 35.3106 142.492 35.6161 143.236 35.6162C143.715 35.6162 144.088 35.4434 144.354 35.0977C144.61 34.7718 144.754 34.3647 144.786 33.876L144.793 33.6611C144.793 32.8633 144.54 32.1586 144.035 31.5469C143.586 30.9483 143.032 30.6301 142.372 30.5928L142.239 30.5889C141.787 30.5889 141.428 30.7751 141.162 31.1475C140.923 31.4933 140.803 31.9587 140.803 32.5439L140.812 32.8486ZM374.342 32.8486C374.388 33.5468 374.597 34.164 374.97 34.6992C375.422 35.3109 376.021 35.6162 376.766 35.6162C377.244 35.6162 377.617 35.4435 377.883 35.0977C378.139 34.7718 378.283 34.3647 378.315 33.876L378.322 33.6611C378.322 32.8632 378.069 32.1586 377.563 31.5469C377.115 30.9484 376.561 30.6302 375.901 30.5928L375.768 30.5889C375.316 30.589 374.956 30.7752 374.69 31.1475C374.451 31.4933 374.332 31.9588 374.332 32.5439L374.342 32.8486ZM574.416 32.8486C574.463 33.5468 574.672 34.164 575.044 34.6992C575.496 35.3109 576.095 35.6162 576.84 35.6162C577.319 35.6162 577.691 35.4435 577.957 35.0977C578.213 34.7718 578.358 34.3647 578.39 33.876L578.396 33.6611C578.396 32.8632 578.143 32.1586 577.638 31.5469C577.189 30.9483 576.635 30.6302 575.976 30.5928L575.843 30.5889C575.391 30.5889 575.031 30.775 574.765 31.1475C574.525 31.4933 574.406 31.9588 574.406 32.5439L574.416 32.8486ZM368.669 25.6807C368.669 26.7716 368.601 28.3622 368.468 30.4414L368.467 30.4404C368.361 32.5074 368.31 34.0434 368.31 35.0576V35.1611L368.283 35.2617C368.156 35.7543 367.948 36.2172 367.602 36.5635C367.234 36.9311 366.766 37.1123 366.255 37.1123C365.465 37.1122 364.814 36.7044 364.311 36.0996C364.072 35.813 363.887 35.5039 363.755 35.1768C362.316 36.2325 360.767 36.793 359.112 36.793C357.484 36.7929 356.048 36.2003 354.839 35.0518L354.831 35.0449L354.823 35.0371C353.633 33.8469 353.028 32.3884 353.028 30.708C353.028 27.9976 354.086 25.5662 356.129 23.4385L356.133 23.4346C358.205 21.3052 360.604 20.1943 363.303 20.1943C363.338 20.1943 363.374 20.1964 363.409 20.1982C363.25 19.258 362.97 18.5884 362.612 18.1387C362.171 17.5842 361.549 17.2803 360.629 17.2803C359.55 17.2803 358.218 17.7921 356.608 18.9932L355.75 19.6338L354.365 16.1035L354.744 15.7256C355.527 14.943 356.503 14.3411 357.651 13.9082C358.802 13.448 359.956 13.2119 361.107 13.2119C363.646 13.2119 365.603 14.3373 366.873 16.5322C368.104 18.6592 368.669 21.7447 368.669 25.6807ZM436.527 25.6807C436.527 26.7696 436.459 28.3562 436.326 30.4297L436.327 30.4307C436.221 32.5024 436.169 34.0419 436.169 35.0576V35.1611L436.143 35.2617C436.015 35.7544 435.806 36.2171 435.46 36.5635C435.092 36.931 434.625 37.1123 434.114 37.1123C433.324 37.1123 432.674 36.7044 432.17 36.0996C431.931 35.8131 431.745 35.5047 431.613 35.1777C430.174 36.233 428.626 36.793 426.972 36.793C425.343 36.793 423.907 36.2003 422.698 35.0518L422.69 35.0449L422.683 35.0371C421.492 33.8469 420.888 32.3885 420.888 30.708C420.888 27.9976 421.946 25.5662 423.988 23.4385L423.992 23.4346C426.065 21.3054 428.462 20.1944 431.161 20.1943C431.197 20.1943 431.233 20.1964 431.269 20.1982C431.109 19.2579 430.829 18.5884 430.472 18.1387C430.031 17.5842 429.408 17.2803 428.488 17.2803C427.409 17.2803 426.078 17.7921 424.468 18.9932L423.609 19.6338L422.225 16.1035L422.604 15.7256C423.386 14.943 424.362 14.3411 425.511 13.9082C426.661 13.448 427.815 13.2119 428.967 13.2119C431.505 13.2119 433.461 14.3375 434.731 16.5322C435.962 18.6592 436.527 21.7447 436.527 25.6807ZM92.7305 25.5215C92.7304 26.7749 92.59 28.0263 92.3135 29.2754L92.3145 29.2764C92.0616 30.5125 91.655 31.7304 91.0977 32.9287C90.5093 34.1935 89.6532 35.2554 88.5381 36.1064L88.5361 36.1084C87.4177 36.9548 86.1088 37.431 84.6367 37.5488L84.5508 37.5557L84.4658 37.5439C81.8303 37.2002 79.7326 36.0669 78.2539 34.1152L78.25 34.1104C76.7983 32.165 76.0928 29.8044 76.0928 27.0771C76.0928 25.96 76.2046 24.7315 76.4229 23.3945L76.4238 23.3857L76.4248 23.3779C76.671 22.0374 77.0264 20.635 77.4873 19.1709C77.9713 17.6335 78.7064 16.3232 79.707 15.2637C80.7487 14.1607 82.0083 13.5713 83.4541 13.5713C86.3072 13.5714 88.5982 14.8872 90.2764 17.4023C91.9124 19.8282 92.7305 22.5426 92.7305 25.5215ZM204.595 25.5215C204.595 26.7748 204.455 28.0263 204.179 29.2754C203.926 30.5117 203.52 31.7303 202.963 32.9287C202.375 34.1935 201.518 35.2554 200.403 36.1064L200.4 36.1084C199.282 36.9548 197.973 37.431 196.501 37.5488L196.415 37.5557L196.33 37.5439C193.695 37.2002 191.597 36.0669 190.118 34.1152L190.114 34.1104C188.663 32.165 187.957 29.8044 187.957 27.0771C187.957 25.96 188.069 24.7315 188.287 23.3945L188.288 23.3857L188.289 23.3779C188.535 22.0374 188.891 20.635 189.352 19.1709C189.836 17.6336 190.571 16.3232 191.571 15.2637C192.613 14.1607 193.873 13.5713 195.318 13.5713C198.171 13.5713 200.462 14.8872 202.141 17.4023C203.777 19.8282 204.595 22.5426 204.595 25.5215ZM298.231 25.002C298.231 26.3756 298.122 27.6997 297.9 28.9727C297.703 30.2326 297.34 31.5237 296.817 32.8447L296.815 32.8506C296.254 34.2391 295.374 35.3744 294.183 36.2383L294.18 36.2402C292.981 37.1007 291.543 37.5107 289.912 37.5107C288.804 37.5107 287.729 37.3007 286.691 36.8896C286.785 40.877 286.867 43.8877 286.938 45.9229L286.943 46.0537L286.906 46.1797C286.759 46.6858 286.519 47.1507 286.135 47.4912C285.736 47.8447 285.247 48.0058 284.726 48.0059C284.001 48.0059 283.351 47.6992 282.79 47.2051L282.589 47.0137C282.141 46.5528 281.85 45.9905 281.728 45.3457L281.712 45.2637L281.713 45.1807L282.207 13.6143L285.388 14.1816L286.062 14.3027V14.8613C287.252 14.3003 288.47 14.0098 289.713 14.0098C292.417 14.0098 294.56 15.1931 296.063 17.4922C297.513 19.7084 298.231 22.2201 298.231 25.002ZM416.041 25.002C416.041 26.3704 415.932 27.6895 415.712 28.958C415.515 30.2224 415.152 31.5187 414.627 32.8447L414.625 32.8506C414.064 34.2389 413.185 35.3744 411.993 36.2383L411.99 36.2402C410.792 37.1006 409.354 37.5107 407.723 37.5107C406.615 37.5107 405.54 37.3015 404.502 36.8906C404.596 40.8775 404.676 43.8879 404.748 45.9229L404.753 46.0537L404.717 46.1797C404.57 46.6859 404.329 47.1507 403.944 47.4912C403.545 47.8446 403.056 48.0058 402.535 48.0059C401.81 48.0059 401.159 47.6984 400.598 47.2031C400.036 46.7102 399.677 46.0813 399.537 45.3457L399.521 45.2637L399.523 45.1807L400.018 13.6143L403.197 14.1816L403.871 14.3027V14.8613C405.061 14.3003 406.28 14.0098 407.522 14.0098C410.227 14.0098 412.37 15.1931 413.873 17.4922C415.322 19.7085 416.041 22.22 416.041 25.002ZM166.861 24.0947C166.868 24.7265 166.878 25.4413 166.892 26.2393C166.918 27.8353 166.931 28.9792 166.931 29.6709C166.931 31.001 166.891 32.3311 166.812 33.6611C166.918 34.2197 167.184 34.6986 167.609 35.0977C168.062 35.47 168.527 35.6562 169.006 35.6562C169.698 35.6562 170.163 35.2436 170.402 34.4189C170.362 33.8399 170.323 32.139 170.283 29.3164L170.243 26.1191C170.19 21.331 170.124 18.498 170.044 17.6201C171.374 17.7797 173.036 17.8594 175.031 17.8594C176.494 17.8594 177.599 17.8862 178.344 17.9395C178.317 18.6311 178.263 20.1474 178.184 22.4883C178.104 24.8027 178.024 27.2372 177.944 29.791L177.875 32.8135C177.855 33.5649 177.838 34.0604 177.824 34.2998C177.931 34.8584 178.211 35.3239 178.663 35.6963C179.059 36.0452 179.464 36.2414 179.88 36.2852L180.06 36.2949C180.708 36.2948 181.157 35.9442 181.408 35.2432L181.456 35.0977L180.538 15.7451L167.091 15.625C166.931 17.4339 166.852 19.7083 166.852 22.4482L166.861 24.0947ZM214.6 21.7627C214.585 22.3861 214.547 22.9869 214.487 23.5654C214.434 24.3369 214.368 24.9894 214.288 25.5215L214.233 25.9229C214.164 26.3468 214.048 26.838 213.889 27.3965L213.64 28.3438C213.566 28.6165 213.503 28.846 213.45 29.0322L213.351 29.3613C213.231 29.7404 213.051 30.2697 212.812 30.9482L212.433 32.1348C212.326 32.4739 212.239 32.7563 212.173 32.9824H209.579C209.499 33.5943 209.46 34.1672 209.46 34.6992L209.47 35.252C209.49 35.8805 209.539 36.7339 209.619 37.8115C209.726 39.2478 209.779 40.1127 209.779 40.4053L211.575 40.8037L212.492 35.3369C214.354 35.4167 216.935 35.577 220.233 35.8164C223.559 36.0558 225.98 36.2151 227.496 36.2949C227.549 36.5876 227.629 37.0664 227.735 37.7314C227.842 38.3965 227.935 39.0088 228.015 39.5674C228.121 40.1524 228.228 40.6316 228.334 41.0039L230.13 41.4023C230.17 41.0832 230.194 40.6593 230.204 40.1309L230.209 39.5674C230.209 39.1417 230.183 38.2896 230.13 37.0127C230.117 36.3745 230.106 35.8094 230.1 35.3174L230.09 34.0605V32.8633H226.978L226.915 31.2891C226.85 29.4985 226.778 27.0571 226.698 23.9648C226.638 20.8523 226.578 18.3982 226.519 16.6025L226.459 15.0264C225.621 14.8867 224.797 14.7846 223.989 14.7197L223.187 14.667C222.655 14.6404 222.046 14.6176 221.361 14.5977L219.076 14.5479C217.427 14.5212 215.858 14.4675 214.368 14.3877C214.528 16.8883 214.607 19.1367 214.607 21.1318L214.6 21.7627ZM240.233 21.7627C240.218 22.3861 240.181 22.9869 240.121 23.5654C240.068 24.3369 240.002 24.9894 239.922 25.5215L239.867 25.9229C239.797 26.3468 239.682 26.838 239.522 27.3965L239.273 28.3438C239.2 28.6165 239.137 28.846 239.084 29.0322L238.984 29.3613C238.865 29.7404 238.685 30.2697 238.445 30.9482L238.066 32.1348C237.96 32.4739 237.873 32.7563 237.807 32.9824H235.213C235.133 33.5943 235.094 34.1672 235.094 34.6992L235.104 35.252C235.123 35.8805 235.173 36.7339 235.253 37.8115C235.359 39.2478 235.413 40.1127 235.413 40.4053L237.208 40.8037L238.126 35.3369C239.988 35.4167 242.569 35.577 245.867 35.8164C249.192 36.0558 251.614 36.2151 253.13 36.2949C253.183 36.5876 253.263 37.0665 253.369 37.7314C253.476 38.3965 253.569 39.0088 253.648 39.5674C253.755 40.1524 253.861 40.6316 253.968 41.0039L255.764 41.4023C255.804 41.0832 255.828 40.6593 255.838 40.1309L255.843 39.5674C255.843 39.1417 255.817 38.2896 255.764 37.0127C255.75 36.3745 255.74 35.8094 255.733 35.3174L255.724 34.0605V32.8633H252.611L252.549 31.2891C252.484 29.4985 252.412 27.0571 252.332 23.9648C252.272 20.8523 252.212 18.3982 252.152 16.6025L252.093 15.0264C251.255 14.8867 250.431 14.7846 249.623 14.7197L248.82 14.667C248.288 14.6404 247.68 14.6176 246.995 14.5977L244.71 14.5479C243.061 14.5212 241.492 14.4675 240.002 14.3877C240.162 16.8883 240.241 19.1367 240.241 21.1318L240.233 21.7627ZM55.5908 21.6455C55.617 23.8335 55.7348 25.7774 55.9443 27.4766C56.2104 29.3918 56.6365 31.1212 57.2217 32.6641C57.8335 34.2067 58.6715 35.3768 59.7354 36.1748C60.7329 36.923 61.9292 37.3204 63.3242 37.3672L63.6064 37.3721C65.0161 37.372 66.2131 36.8402 67.1973 35.7764C68.2081 34.739 68.9394 33.4087 69.3916 31.7861C69.8105 30.3664 70.1176 29.0481 70.3125 27.832L70.3896 27.3164C70.5525 26.1062 70.6437 24.9571 70.6641 23.8691L70.6689 23.4062C70.6689 17.8654 68.347 15.008 63.7031 14.835L63.2471 14.8271C62.5022 14.8271 61.6375 14.9999 60.6533 15.3457L60.3018 15.4697C59.4986 15.7694 58.8175 16.1407 58.2588 16.583C58.5248 15.4125 58.9509 14.308 59.5361 13.2705C60.1479 12.2066 60.7862 11.3283 61.4512 10.6367C62.0564 10.0083 62.7842 9.38039 63.6338 8.75195L64.0049 8.48242C64.783 7.92376 65.4792 7.46275 66.0928 7.09863L66.6787 6.7666C67.4236 6.34098 68.3544 5.83522 69.4717 5.25C70.3097 4.81104 70.9759 4.455 71.4697 4.18066L71.9062 3.93359C71.534 3.08266 71.2546 2.5105 71.0684 2.21777C70.9087 1.92515 70.7216 1.71211 70.5088 1.5791C70.3227 1.41954 70.1498 1.23322 69.9902 1.02051C67.6494 2.11114 65.6541 3.2148 64.0049 4.33203C62.3556 5.44932 60.8662 6.78032 59.5361 8.32324L59.29 8.61523C58.0822 10.0913 57.1664 11.7897 56.543 13.71C55.9046 15.7582 55.586 18.0856 55.5859 20.6924L55.5908 21.6455ZM121.554 21.5703C121.58 22.395 121.593 23.2999 121.593 24.2842C121.619 25.2684 121.646 26.2925 121.673 27.3564C121.699 28.3939 121.713 29.3919 121.713 30.3496C121.739 31.307 121.753 32.1846 121.753 32.9824C121.78 33.7538 121.793 34.3661 121.793 34.8184C121.82 35.111 122.112 35.3375 122.671 35.4971C123.229 35.6566 123.854 35.7757 124.546 35.8555C125.264 35.9619 125.943 36.0291 126.581 36.0557C126.9 36.069 127.163 36.0783 127.369 36.085L127.818 36.0957C128.803 36.0957 129.734 35.9354 130.611 35.6162C131.379 35.3602 132.066 35.0125 132.671 34.5732L132.926 34.3799C133.508 33.8911 133.988 33.3207 134.366 32.6689L134.521 32.3848C134.921 31.6133 135.12 30.7612 135.12 29.8301C135.12 28.8726 134.92 27.9414 134.521 27.0371C134.172 26.2227 133.712 25.4895 133.139 24.8379L132.886 24.5635C132.194 23.8453 131.356 23.2733 130.372 22.8477C129.511 22.4519 128.588 22.2291 127.604 22.1797L127.18 22.1689C126.222 22.1689 125.211 22.3293 124.147 22.6484C123.988 21.1853 123.841 19.8812 123.708 18.7373C123.655 18.1656 123.608 17.6304 123.568 17.1318L123.469 15.7451L121.673 15.3457C121.593 16.7024 121.554 18.1256 121.554 19.6152V21.5703ZM113.815 18.3779C113.815 19.5396 113.611 20.6732 113.206 21.7734L113.205 21.7725C112.989 22.3847 112.721 22.9343 112.381 23.3779C114.149 24.8808 115.053 26.8623 115.053 29.2715C115.053 31.8105 114.205 33.879 112.448 35.3633L112.447 35.3623C110.749 36.8195 108.538 37.5107 105.896 37.5107C102.776 37.5107 100.298 36.6727 98.6289 34.8516L98.3994 34.6016L99.3223 14.4385L99.9395 14.3066C102.005 13.8668 103.675 13.5354 104.946 13.3135C106.195 13.0955 107.118 12.9727 107.651 12.9727C109.531 12.9727 111.094 13.373 112.193 14.3164C113.317 15.2804 113.815 16.6871 113.815 18.3779ZM475.864 18.3779C475.864 19.5353 475.661 20.6644 475.259 21.7607C475.042 22.3776 474.772 22.9316 474.43 23.3779C476.198 24.8808 477.101 26.8622 477.102 29.2715C477.102 31.8105 476.254 33.879 474.497 35.3633L474.496 35.3623C472.798 36.8195 470.587 37.5107 467.944 37.5107C464.825 37.5107 462.347 36.6727 460.678 34.8516L460.448 34.6016L461.371 14.4385L461.988 14.3066C464.054 13.8668 465.725 13.5354 466.996 13.3135C468.244 13.0956 469.167 12.9727 469.7 12.9727C471.58 12.9727 473.143 13.3731 474.242 14.3164C475.365 15.2804 475.864 16.6871 475.864 18.3779ZM7.5 19.5654C7.49335 20.0243 7.484 20.4266 7.4707 20.7725L7.46289 21.3359C7.44793 21.9644 7.41045 22.788 7.35059 23.8057L7.2832 24.7832C7.20839 25.7208 7.1109 26.5391 6.99121 27.2373L6.87402 27.9453C6.73938 28.6833 6.55282 29.5112 6.31348 30.4287L6.19043 30.8789C5.89657 31.9059 5.55193 32.7804 5.15625 33.502L4.98047 33.7998C4.5586 34.4922 4.04557 35.1647 3.44043 35.8164L3.16699 36.0859C2.52105 36.6941 1.81404 37.1495 1.0459 37.4521L1.68457 39.168C3.28061 38.8753 4.63764 38.2631 5.75488 37.332C6.89856 36.4276 7.73658 35.4035 8.26855 34.2598C8.75731 33.2357 9.14456 32.0283 9.42969 30.6377L9.54492 30.0303C9.83754 28.3543 9.99781 26.864 10.0244 25.5605C10.0776 24.2305 10.1304 22.7006 10.1836 20.9717C10.2368 19.2427 10.303 17.9393 10.3828 17.0615C10.835 17.0083 11.6068 16.968 12.6973 16.9414C13.788 16.9148 14.8925 16.8093 16.0098 16.623C16.0364 17.5807 16.0498 19.0176 16.0498 20.9326L16.0391 22.8672C16.0324 23.6386 16.0231 24.5364 16.0098 25.5605V30.1494L16.0195 32.8428C16.0262 33.6143 16.0365 34.2595 16.0498 34.7783C16.1562 35.3103 16.4221 35.7624 16.8477 36.1348C17.22 36.4606 17.6024 36.6448 17.9951 36.6855L18.1641 36.6943C18.7876 36.6943 19.236 36.3431 19.5088 35.6416L19.5605 35.4971C19.3477 32.2782 19.2153 25.2682 19.1621 14.4678C18.7631 14.4944 17.0866 14.5078 14.1338 14.5078L12.8066 14.5176C9.89418 14.5612 8.27509 14.7573 7.94922 15.1064C7.65662 15.4257 7.50977 16.3969 7.50977 18.0195L7.5 19.5654ZM525.057 16.7822C525.057 17.3827 524.846 17.9382 524.37 18.3428C523.927 18.7197 523.34 18.8906 522.725 18.9521L522.665 18.958L516.049 18.6387C516.148 20.5955 516.198 23.2224 516.198 26.5127C516.225 30.3154 516.278 33.0823 516.357 34.8213L516.363 34.9639L516.321 35.1006C516.17 35.588 515.923 36.0327 515.533 36.3555C515.133 36.687 514.652 36.8329 514.145 36.833C513.448 36.833 512.825 36.5411 512.289 36.0723C511.734 35.5868 511.371 34.977 511.228 34.2607L511.207 34.1582L511.213 34.0537C511.562 27.9146 511.924 22.6951 512.298 18.3965L504.772 18.0479L504.097 14.7461L505.037 14.6895C508.607 14.4763 514.224 14.184 521.886 13.8115L521.923 13.8096L521.959 13.8105C522.802 13.8457 523.542 14.1708 524.139 14.7676C524.701 15.3303 525.057 16.0063 525.057 16.7822Z" fill="#546A88"/>
</svg>
